<?xml version="1.0" encoding="UTF-8" ?>

<svg
   version="1.1"
   x="0px"
   y="0px"
   viewBox="0 0 720.2 55.5"
   style="enable-background:new 0 0 720.2 55.5;"
   xml:space="preserve"
   xmlns="http://www.w3.org/2000/svg"
   xmlns:svg="http://www.w3.org/2000/svg">
<path
   d="M717.2,16.1l-0.6,3.5l0.4,3.6c-0.4-0.4-0.8-0.8-1.2-1.2s-1.1-0.8-1.9-1.2c-0.8-0.4-1.9-0.6-3.1-0.9  c-1.3-0.2-2.9-0.3-4.8-0.3c-1.2,0-2,0.3-2.5,0.8c-0.5,0.6-0.7,1.4-0.7,2.5v4.4c0,0.1,0.1,0.1,0.2,0.2c0.2,0,0.3,0.1,0.5,0.1h0.2  c0.6-0.2,1-0.3,1.3-0.3c0.3,0,0.6-0.1,0.8-0.2c0.2-0.1,0.5-0.2,0.8-0.5c0.3-0.2,0.7-0.5,1.3-1h0.5l-0.1,0.1  c-0.1,0.4-0.2,0.7-0.2,0.8c-0.1,0.1-0.2,0.2-0.2,0.3c-0.1,0.1-0.1,0.2-0.1,0.4c0,0.2,0,0.6,0,1.1c-0.1,1-0.1,1.6-0.1,1.7  c0,1.4,0.1,2.3,0.4,2.9c-0.4-0.3-0.7-0.5-1-0.8c-0.3-0.3-0.5-0.5-0.8-0.7c-0.2-0.2-0.5-0.3-0.8-0.4c-0.3-0.1-0.6-0.2-1-0.2H703  c-0.3,0-0.4,0.2-0.4,0.5v4.1c0,0.6,0,1.1,0.1,1.6c0,0.5,0.2,1,0.4,1.3c0.2,0.4,0.5,0.7,0.9,0.9c0.4,0.2,0.9,0.4,1.6,0.4  c0.3,0,0.9,0,1.7-0.1c0.8,0,1.7-0.1,2.7-0.3c1-0.2,1.9-0.4,2.7-0.8c0.9-0.3,1.5-0.8,1.8-1.3c0.4-0.6,0.7-1,0.8-1.3  c0.1-0.3,0.4-0.6,0.8-0.9c0,0.1-0.1,0.2-0.1,0.2c0,0.2,0.1,0.4,0.2,0.5c0.1,0.1,0.2,0.4,0.2,0.8c0,0.1,0,0.2,0,0.2  c0,0.1,0,0.2,0,0.2l0.2,2.5c0.1,0.7,0.2,1.4,0.2,1.9c0,0.5,0.1,1.1,0.1,1.6c0.1,0.5,0.2,1.1,0.3,1.7c0.1,0.6,0.4,1.3,0.8,2.2  c-0.2-0.1-0.6-0.2-1.1-0.3c-0.5-0.1-1-0.2-1.6-0.2c-0.6-0.1-1.1-0.1-1.7-0.1c-0.6,0-1,0-1.3,0h-1.1l-4.7,0.5h-1.3l-0.5,0.2h-1.3  c-1.2-0.2-2.2-0.5-3.1-0.7c-0.9-0.2-1.9-0.3-3-0.3c-0.1,0-0.3,0-0.7,0.1c-0.4,0-0.7,0.1-1,0.1c-0.3,0-0.5,0.1-0.5,0.1  c-0.1,0-0.6,0-1.4,0.1c-0.8,0.1-1.5,0.2-2.2,0.3c0.1,0,0.2-0.4,0.5-1c0.2-0.6,0.5-1.3,0.8-2s0.5-1.4,0.7-2.1  c0.2-0.7,0.3-1.1,0.3-1.2c0-0.7,0.1-1.3,0.3-1.8c0.2-0.5,0.3-1.1,0.3-1.8c0-2,0-3.7,0-5.1c0-1.4,0-2.6,0.1-3.6c0-1,0-1.8,0.1-2.5  c0-0.7,0-1.2,0-1.7s0-0.9,0-1.4c0-0.4-0.1-0.9-0.1-1.4c-0.1-1.5-0.4-2.9-0.7-4.3c-0.4-1.4-0.9-2.8-1.6-4.2c0.7,0.2,1.3,0.4,2,0.5  c0.6,0.2,1.3,0.3,2,0.4h1.3c0.1,0,0.2-0.1,0.2-0.1s0.2,0,0.2-0.1l0.2-0.1c0.8-0.2,1.7-0.4,2.6-0.6c0.9-0.2,1.8-0.3,2.6-0.3h3.8  c0.2,0,0.5,0.1,1,0.2c0.5,0.1,1,0.3,1.6,0.4c0.6,0.1,1.2,0.3,1.7,0.4s1,0.2,1.4,0.2c0,0,0.2,0,0.5-0.1c0.3,0,0.5-0.1,0.7-0.1  c0.2,0,0.3-0.1,0.4-0.1h1.1c0.3,0,0.8-0.2,1.4-0.5c0.6-0.3,1.1-0.5,1.4-0.7L717.2,16.1z M688.3,14c-0.3,0.6-0.5,1.2-0.5,1.9  c0,0.2,0,0.6-0.2,1c-0.1,0.4-0.2,0.8-0.3,1.3c-0.1,0.4-0.2,0.8-0.3,1.2c-0.1,0.4-0.2,0.7-0.2,0.8v17.3c-0.3,1.6-0.8,3-1.5,4.2  c-0.7,1.3-1.6,2.3-2.6,3.2c-1,0.9-2.2,1.5-3.4,2c-1.3,0.5-2.6,0.7-3.9,0.7h-2.9c-1.5,0-2.8-0.3-4-1s-2.2-1.5-3.1-2.5  c-0.9-1-1.6-2.2-2-3.5c-0.5-1.3-0.7-2.5-0.7-3.8V19c0-0.3-0.1-0.7-0.3-1.3c-0.2-0.6-0.4-1.2-0.6-1.8c-0.2-0.6-0.5-1.2-0.7-1.7  c-0.2-0.5-0.4-0.8-0.4-1h0.2l2.7,0.7h1.3c0.1,0,0.3,0,0.6,0c0.3,0,0.7,0.1,1.1,0.1c0.4,0,0.8,0.1,1.1,0.1c0.4,0,0.6,0,0.7,0  s0.2,0,0.4-0.1c0.1-0.1,0.2-0.1,0.3-0.1h0.9c0.1,0,0.3,0,0.5-0.1c0.3-0.1,0.5-0.1,0.9-0.2c0.3-0.1,0.6-0.2,0.9-0.2  c0.3-0.1,0.4-0.1,0.5-0.1h0.5c-0.7,1.1-1.2,2.3-1.6,3.5s-0.6,2.4-0.7,3.5v16.1c0,0.9,0.3,1.8,1,2.6c0.7,0.8,1.6,1.2,2.6,1.2  c1.6,0,2.6-0.5,3.1-1.4c0.5-0.9,0.8-2,0.8-3.3v-17c0-0.4-0.1-0.9-0.2-1.4c-0.1-0.5-0.3-1.1-0.5-1.6c-0.2-0.6-0.4-1.1-0.7-1.6  c-0.2-0.5-0.5-0.9-0.7-1.2v-0.2c0.1,0,0.3,0.1,0.6,0.2c0.3,0.1,0.6,0.2,0.9,0.3c0.3,0.1,0.6,0.2,0.9,0.2c0.3,0.1,0.4,0.1,0.5,0.1  h5.3c0.1,0,0.3,0,0.6-0.1c0.3-0.1,0.7-0.2,1.2-0.3c0.5-0.1,0.9-0.2,1.4-0.4c0.5-0.1,0.9-0.3,1.3-0.4C688.9,12.8,688.6,13.4,688.3,14   M655.5,18.8c-0.1,0.2-0.1,0.8-0.2,1.7c-0.1,0.9-0.1,2.4-0.1,4.4l0.2,2.2h-0.2c-0.4-0.7-0.8-1.3-1.2-2c-0.4-0.7-0.7-1.3-1-1.8  c-0.4-0.5-0.7-1-1-1.5c-0.3-0.5-0.6-1-0.9-1.4c-0.3-0.4-0.8-0.8-1.3-1c-0.5-0.3-1.2-0.4-2-0.4h-0.7c-1,0-1.8,0.2-2.4,0.5  c-0.7,0.3-1.2,0.8-1.6,1.3c-0.4,0.5-0.7,1.2-0.9,1.9c-0.2,0.7-0.3,1.4-0.3,2.1l-0.2,2v8.1c0,0.2,0.1,0.6,0.2,1.1  c0.1,0.5,0.3,1,0.5,1.5c0.2,0.5,0.5,1,0.9,1.4c0.4,0.4,0.8,0.6,1.3,0.6c1.5,0,2.6-0.3,3.5-1c0.8-0.6,1.3-1.3,1.3-2  c0-0.1,0-0.4,0.1-0.7c0-0.3,0.1-0.7,0.1-1c0-0.6-0.1-1.1-0.3-1.6c-0.2-0.5-0.5-0.9-0.8-1.3c-0.3-0.4-0.7-0.9-1-1.4  c-0.4-0.5-0.8-1-1.2-1.6c0.6,0.2,1.2,0.3,1.6,0.3c0.4,0.1,0.9,0.1,1.3,0.1c0.4,0,0.8,0.1,1.1,0.1c0.4,0,0.8,0,1.2,0.1h2  c0.3,0,0.7,0,1.2-0.1c0.5-0.1,1-0.1,1.5-0.2c0.5-0.1,1-0.2,1.5-0.3c0.5-0.1,0.9-0.2,1.3-0.3l-0.1,0.2c-0.5,1-0.9,1.9-1.3,2.7  c-0.3,0.8-0.5,1.8-0.7,2.9c-0.1,0.4-0.1,0.6-0.1,0.7c0,0.1-0.1,0.2-0.1,0.2c0,0.1,0,0.2,0,0.4v0.8v1.5c0.1,0.7,0.2,1.7,0.3,3  c0.1,1.3,0.1,2.7,0.2,4.1c0.1,1.4,0.2,2.8,0.4,4.1c0.1,1.3,0.3,2.3,0.6,3l-0.2,0.2c-0.3-0.1-0.7-0.5-1.3-1.2c-0.5-0.7-1-1.4-1.6-2.2  c-0.5-0.8-1.1-1.5-1.6-2.1c-0.5-0.6-1-1-1.3-1.1l-2.2-0.1c-0.3,0-0.7,0.1-1.1,0.2c-0.5,0.2-0.9,0.3-1.4,0.6c-0.5,0.2-1,0.4-1.5,0.6  c-0.5,0.2-1,0.2-1.3,0.2c-1.6,0-3.2-0.4-4.6-1c-1.4-0.7-2.7-1.6-3.7-2.8c-1.1-1.1-1.9-2.4-2.5-3.9c-0.6-1.5-0.9-2.9-0.9-4.5v-9.9  c0-1.1,0.2-2.4,0.5-4c0.3-1.6,0.9-3.1,1.7-4.6c0.8-1.5,1.8-2.7,3.1-3.8c1.3-1.1,2.9-1.6,4.8-1.6h1.8l6.7,1.3h0.7  c1.1,0,2.1-0.3,3.1-0.8c0.9-0.5,2-1,3.3-1.5L655.5,18.8z M615.3,27.7c-0.3,1.1-0.7,2.2-1.1,3.4c-0.4,1.2-0.7,2.2-0.9,3.1  c-0.3,0.9-0.4,1.5-0.4,1.7v0.2h5.9v-0.4c0-0.2-0.1-0.8-0.4-1.7c-0.2-0.9-0.5-2-0.9-3.1c-0.3-1.1-0.7-2.2-1-3.3  c-0.3-1-0.5-1.8-0.6-2.2C615.9,25.8,615.6,26.6,615.3,27.7 M613.5,13c1.1,0.4,2.2,0.6,3.3,0.6c0.2,0,0.4-0.1,0.5-0.1  c0.1,0,0.2,0,0.3,0c0.2,0,0.3,0,0.4,0.1c0.5-0.1,1.1-0.2,1.7-0.3c0.6-0.1,1.2-0.3,1.7-0.5c0.6-0.2,1.1-0.3,1.5-0.4  c0.4-0.1,0.7-0.2,0.9-0.2h0.2c0,0-0.1,0.3-0.2,0.7c-0.1,0.4-0.3,0.9-0.5,1.4c-0.2,0.5-0.3,1-0.4,1.5c-0.1,0.5-0.2,0.9-0.2,1.1  l-0.1,1.2c0,0.2,0,0.3,0.1,0.4c0.5,1.7,0.9,3.2,1.3,4.6c0.4,1.3,0.8,2.8,1.3,4.4c0.5,1.6,0.9,3.1,1.3,4.6c0.4,1.5,0.8,2.9,1.1,4.1  c0.3,1.2,0.5,2.1,0.7,2.6c0.2,0.9,0.5,1.7,0.8,2.5c0.3,0.8,0.7,1.5,1.1,2.3c0.4,0.7,0.9,1.5,1.4,2.3c0.5,0.8,1,1.6,1.6,2.5  c-0.7-0.2-1.4-0.4-2.1-0.6c-0.7-0.2-1.4-0.3-2-0.3c-0.8-0.1-1.6-0.2-2.3-0.2c-0.7,0-1.2,0-1.3,0h-1.1c-1.5,0.2-2.6,0.3-3.3,0.4  c-0.7,0.1-1.1,0.1-1.2,0.2c0-0.2,0.2-0.6,0.6-1.2c0.3-0.6,0.5-1.4,0.5-2.3c0-0.1,0.1-0.4,0.2-1.1c0-0.2-0.1-0.6-0.2-1  c-0.1-0.4-0.3-0.8-0.5-1.2c-0.2-0.4-0.4-0.8-0.6-1.1c-0.2-0.3-0.4-0.5-0.5-0.6h-6.3c-0.4,0-0.8,0-1,0.1c-0.2,0.1-0.3,0.2-0.4,0.3  c-0.1,0.2-0.1,0.4-0.1,0.7c0,0.3-0.1,0.6-0.2,1.1v0.9c0,0.2,0.1,0.5,0.1,0.9v0.7c0,0.4,0.1,0.8,0.2,1.2c0.1,0.4,0.4,0.8,0.9,1.3  h-0.4c0,0-0.2-0.1-0.6-0.2c-0.4-0.1-0.8-0.2-1.2-0.2c-0.4-0.1-0.9-0.1-1.3-0.2c-0.4-0.1-0.8-0.1-1-0.1h-3.2c-0.7,0-1.3,0.1-2,0.2  c-0.6,0.2-1.4,0.3-2.3,0.4c0.1-0.2,0.4-0.7,0.9-1.3c0.5-0.6,0.9-1.3,1.4-2c0.5-0.7,1-1.5,1.4-2.2c0.4-0.7,0.6-1.3,0.6-1.8  c0.6-1.9,1.1-3.5,1.6-5c0.4-1.4,0.9-3,1.5-4.7c0.5-1.7,1-3.3,1.5-4.8c0.4-1.5,0.8-2.8,1.1-4c0.3-1.1,0.5-1.8,0.5-2.1  c0-0.3,0.1-0.7,0.2-1.3c0.2-0.5,0.2-1.1,0.2-1.6c0-0.4,0-0.8-0.1-1c-0.1-0.2-0.2-0.5-0.3-0.7c-0.1-0.2-0.3-0.5-0.4-0.8  c-0.2-0.3-0.3-0.8-0.5-1.4C611.3,12.2,612.4,12.6,613.5,13 M581.6,19.6c-0.4,0.1-0.7,0.2-0.9,0.2v10.4h3.4c0.7,0,1.4-0.1,1.9-0.4  c0.5-0.3,1-0.7,1.3-1.1c0.3-0.5,0.6-0.9,0.8-1.5c0.2-0.5,0.2-1,0.2-1.4v-1.9c0-1.2-0.4-2.3-1.3-3.2c-0.9-0.9-2-1.3-3.3-1.3  C582.7,19.4,582,19.5,581.6,19.6 M569.8,11.9c0.8,0.2,1.6,0.4,2.4,0.5c0.8,0.1,1.6,0.3,2.4,0.5h2.5c0.2,0,0.5,0,1.2-0.1  c0.6-0.1,1.3-0.2,2.1-0.3c0.8-0.1,1.5-0.2,2.3-0.3c0.7-0.1,1.3-0.1,1.7-0.1c0.4,0,0.7,0,0.8-0.1c0.1-0.1,0.2-0.1,0.3-0.1  c0.1,0,0.2,0,0.3,0.1c0.1,0.1,0.2,0.1,0.4,0.1h1.1c1.4,0,2.8,0.4,3.9,1.2c1.2,0.8,2.2,1.7,3,2.9c0.8,1.1,1.4,2.4,1.9,3.6  c0.4,1.3,0.7,2.4,0.7,3.4c0,0.1,0,0.4,0,0.9c0,0.5-0.1,1.2-0.2,2c0,0.4-0.1,0.9-0.3,1.5c-0.2,0.6-0.5,1.1-0.8,1.7  c-0.4,0.9-0.9,1.6-1.5,2c-0.6,0.5-1.2,0.8-1.6,0.9c-0.4,0.1-0.7,0.2-0.8,0.2c0,0.1,0.2,0.3,0.7,0.5c0.4,0.2,0.9,0.5,1.4,0.9  c0.5,0.4,1,0.9,1.5,1.5c0.5,0.6,0.7,1.4,0.8,2.4l2,8.3c0,0.5,0.2,1.1,0.7,1.7c0.4,0.6,0.9,1.2,1.5,1.9c0.5,0.6,1.1,1.3,1.5,1.9  c0.5,0.6,0.8,1.2,0.9,1.7c-0.9-0.3-1.9-0.7-2.9-1.1c-1-0.4-1.9-0.8-2.7-1c-0.2,0-0.5,0-0.9,0c-0.4,0-0.8-0.1-1.1-0.1  c-0.4,0-0.7-0.1-1-0.1c-0.3,0-0.5,0-0.5,0c-0.7,0-1.2,0-1.7,0.1c-0.4,0.1-0.7,0.1-0.8,0.1h-0.7c0,0-0.2-0.2-0.4-0.6  c-0.2-0.4-0.5-0.9-0.7-1.5c-0.3-0.6-0.5-1.2-0.8-1.9s-0.4-1.3-0.5-1.8l-0.7-3.1c0,0,0-0.2,0-0.4c0-0.2,0-0.5,0-0.8v-0.8v-0.5  c0-0.4,0-0.8-0.1-1.4c-0.1-0.6-0.2-1.1-0.5-1.6c-0.2-0.5-0.6-1-1.1-1.4c-0.5-0.4-1.1-0.6-1.9-0.7l-2.3-0.2c-0.3,0-0.5,0.2-0.6,0.5  c-0.1,0.3-0.1,0.6-0.1,0.9c0,0.3,0,0.5,0,0.7c0,0.2,0,0.3,0,0.4l-0.2,4.7c0.2,0.4,0.4,0.8,0.5,1.2s0.3,0.7,0.4,1.1  c0.2,0.4,0.3,0.7,0.5,1.1c0.2,0.4,0.5,0.9,0.8,1.4h-0.7c0,0-0.2,0-0.5-0.1c-0.3,0-0.7-0.1-1.1-0.1c-0.4,0-0.8-0.1-1.2-0.1  c-0.4,0-0.8-0.1-1.1-0.1h-1.4c-0.1,0-0.2-0.1-0.4-0.2h-1.8c-0.9,0.2-1.8,0.5-2.7,0.6c-0.9,0.2-1.9,0.4-2.9,0.8c1.2-1.8,2-3.5,2.5-5  c0.5-1.6,0.8-3.2,0.8-4.9c0.1-2.1,0.1-4.2,0.2-6.4c0-2.2,0.1-4.2,0.1-6c0-1.8,0-3.3,0-4.5v-1.7l-0.7-3.2c0-0.1-0.1-0.3-0.3-0.7  c-0.2-0.3-0.4-0.7-0.6-1c-0.2-0.3-0.5-0.7-0.7-1c-0.2-0.3-0.4-0.5-0.5-0.5L569.8,11.9z M551.1,10.6v16c-0.1,0-0.1,0-0.1,0.1v0.2  c0,0.2,0,0.2,0.1,0.2l2.7,0.4c0.1,0,0.3,0.1,0.5,0.1c0.7,0,1.3-0.2,1.8-0.7c0.5-0.4,1-1,1.4-1.6c0.4-0.7,0.7-1.4,0.9-2.2  c0.2-0.8,0.3-1.6,0.4-2.3v-5.2c0-0.3-0.1-0.8-0.2-1.4c-0.2-0.6-0.4-1.2-0.7-1.7c-0.3-0.6-0.7-1.1-1.2-1.5c-0.5-0.4-1.1-0.7-1.7-0.7  L551.1,10.6z M547.2,4.3c0.4,0.1,0.6,0.1,0.7,0.1c0.2,0,0.3,0,0.3-0.1c0,0,0.1-0.1,0.2-0.1l4.9-0.7c0.4-0.1,0.8-0.2,1-0.2  c0.3,0,0.4,0,0.5,0h2.5c1.7,0,3.1,0.4,4.2,1.3s2.1,1.9,2.8,3.1c0.7,1.2,1.2,2.5,1.5,3.9c0.3,1.4,0.4,2.6,0.4,3.7v6.8l0.1,0.5  c0,1.2-0.3,2.3-0.8,3.4c-0.5,1.1-1.2,2.1-1.9,2.9c-0.8,0.9-1.6,1.6-2.4,2.1c-0.8,0.6-1.5,0.9-2.1,1.1c-1.6,0.4-2.8,0.5-3.8,0.5  c-1.3,0-2.2-0.2-2.8-0.5c-0.6-0.3-1.1-0.4-1.4-0.4c-0.1,0-0.2,0-0.2,0.1v3.4c0,2,0,3.5,0,4.5c0,1,0,1.7,0,2.1v0.5l-0.1,0.4  c0.2,1,0.4,1.8,0.6,2.5c0.2,0.7,0.5,1.4,0.8,2.2c0.3,0.8,0.7,1.5,1.1,2.1l-5-0.5l-4.3,0.7c-0.3,0-0.7,0.1-1.2,0.3  c-0.5,0.2-1,0.4-1.4,0.7c-0.5,0.3-0.9,0.5-1.3,0.8c-0.4,0.2-0.7,0.4-1,0.5c0.2-0.3,0.6-0.8,1-1.7c0.4-0.9,0.8-1.8,1.3-2.8  c0.4-1,0.8-2,1.1-3c0.3-1,0.5-1.7,0.5-2.3V12.2c0-0.7-0.1-1.5-0.3-2.3c-0.2-0.9-0.4-1.8-0.7-2.7c-0.3-0.9-0.6-1.8-0.9-2.6  c-0.3-0.8-0.6-1.5-0.8-2.1L547.2,4.3z M515.4,10v0.7c0,0.2-0.2,0.4-0.6,0.8c-0.4,0.3-0.8,0.7-1.3,1.2c-0.5,0.4-0.9,1-1.3,1.5  c-0.4,0.6-0.6,1.2-0.6,1.9c0,0.1,0,0.3-0.1,0.7c-0.1,0.4-0.2,0.8-0.2,1.2c-0.1,0.5-0.1,0.7-0.1,0.8c0,0.2,0,0.5-0.1,1.1  c0,0.5-0.1,1.1-0.1,1.7c-0.1,0.6-0.1,1.2-0.2,1.8s-0.1,1-0.1,1.3c0,0.7,0,1.7,0,2.9c0,1.2,0,2.5,0,3.8c0,1.3,0,2.5,0,3.8  c0,1.2,0,2.2,0.1,2.9c0,0.7,0,1.1,0,1.1c0,0.7,0.2,1.4,0.5,2.2c0.3,0.7,0.7,1.4,1.1,2.2c0.4,0.7,0.9,1.4,1.3,2.1  c0.5,0.7,0.8,1.4,1.1,2.1h-0.2c0,0-0.2,0-0.4-0.1c-0.2-0.1-0.4-0.2-0.7-0.2c-0.2-0.1-0.5-0.2-0.7-0.3c-0.2-0.1-0.4-0.2-0.5-0.2  c0,0-0.1,0-0.1-0.1c-1.1-0.4-2.1-0.7-2.9-0.8s-1.7-0.2-2.6-0.2h-3.1l-5.1,1.1v-0.2c0-0.2,0.2-0.7,0.6-1.3s0.6-1.5,0.6-2.5  c0-0.4-0.2-1.1-0.5-2.3c-0.3-1.1-0.7-2.4-1.2-3.8c-0.5-1.4-1-2.9-1.6-4.5c-0.6-1.6-1.2-3-1.7-4.4c-0.5-1.4-1-2.6-1.4-3.6  c-0.4-1-0.7-1.7-0.9-2c-0.1,0.3-0.1,0.5-0.1,0.6c0,0.2,0,0.4,0.1,0.6s0.1,0.4,0.1,0.6c0,0.1,0,0.4,0,1c0,0.6,0,1.2-0.1,1.9  c0,0.7,0,1.4,0,2.1v1.3c0,1.2,0,2.5,0.1,4.1c0.1,1.6,0.2,3.1,0.2,4.4c0,1.2,0.3,2.4,0.8,3.5c0.5,1.1,1.1,2.2,2,3.4v0.5  c-0.2,0-0.5-0.1-0.9-0.2c-0.5-0.1-0.9-0.2-1.4-0.2c-0.5-0.1-1-0.1-1.4-0.2c-0.4,0-0.7-0.1-0.8-0.1h-3.6c-0.4,0-0.8,0-1.2,0.1  c-0.4,0.1-0.9,0.2-1.3,0.2c-0.5,0.1-0.9,0.2-1.3,0.2c-0.4,0.1-0.7,0.1-0.9,0.1h-0.5l2.3-4.1c0.1-0.3,0.2-0.7,0.3-1  c0.1-0.4,0.2-0.7,0.3-1l0.1-0.2V20.3c-0.2-0.8-0.5-1.6-0.9-2.4c-0.3-0.8-0.7-1.5-1-2.2c-0.3-0.7-0.6-1.3-0.9-1.7  c-0.2-0.5-0.4-0.8-0.4-0.9v-0.2h1.1l2,0.4c0.2,0,0.5,0,0.9,0.1c0.3,0,0.7,0.1,1,0.1c0.3,0.1,0.7,0.1,1,0.2c0.3,0.1,0.6,0.1,0.7,0.1  c0.4,0.1,0.8,0.2,0.9,0.2c0.2,0,0.3,0,0.5,0l0.7-0.2l0.9,0.2c0.4,0,0.9,0,1.4-0.2c0.5-0.1,1-0.2,1.5-0.4c0.5-0.2,1-0.3,1.4-0.5  c0.4-0.1,0.8-0.3,1-0.4h0.4c-0.2,0.4-0.3,0.9-0.4,1.2c0,0.4-0.1,0.8-0.2,1.2v1.6c0.4,1.6,0.9,3.2,1.4,4.7c0.5,1.5,1.1,3.1,1.7,4.6  c0.6,1.5,1.2,3.1,1.8,4.6c0.6,1.5,1.1,3.1,1.6,4.8l0.5,0.2V23.8c-0.1-0.4-0.1-1-0.1-2c0-1,0-1.9,0-2.8v-2c0-0.6-0.1-1.1-0.2-1.5  c-0.1-0.4-0.3-0.8-0.5-1.1c-0.2-0.4-0.5-0.8-0.8-1.2c-0.3-0.4-0.6-1-0.9-1.6l-0.2-0.4c0.3,0.1,0.7,0.2,1.3,0.3  c0.6,0.1,1.1,0.1,1.7,0.2c0.6,0,1.1,0.1,1.6,0.1c0.5,0,0.8,0,0.9,0c0.1,0,0.2,0,0.3,0.1c0.1,0,0.3,0.1,0.6,0.1c0.1,0,0.3,0,0.6-0.1  c0.3-0.1,0.6-0.1,1-0.2c0.4-0.1,0.7-0.2,1-0.2c0.3-0.1,0.5-0.1,0.7-0.1c0.4-0.1,0.9-0.2,1.4-0.3c0.5-0.1,1-0.2,1.5-0.4  c0.5-0.1,0.9-0.3,1.3-0.4c0.4-0.1,0.7-0.1,0.8-0.1H515.4z M478.1,16.1l-0.6,3.5l0.4,3.6c-0.4-0.4-0.8-0.8-1.2-1.2s-1.1-0.8-1.9-1.2  c-0.8-0.4-1.9-0.6-3.1-0.9c-1.3-0.2-2.9-0.3-4.8-0.3c-1.2,0-2,0.3-2.5,0.8c-0.5,0.6-0.7,1.4-0.7,2.5v4.4c0,0.1,0.1,0.1,0.2,0.2  c0.2,0,0.3,0.1,0.5,0.1h0.2c0.6-0.2,1-0.3,1.3-0.3c0.3,0,0.6-0.1,0.8-0.2c0.2-0.1,0.5-0.2,0.8-0.5c0.3-0.2,0.7-0.5,1.3-1h0.5  l-0.1,0.1c-0.1,0.4-0.2,0.7-0.2,0.8c-0.1,0.1-0.1,0.2-0.2,0.3c-0.1,0.1-0.1,0.2-0.1,0.4c0,0.2,0,0.6,0,1.1c-0.1,1-0.1,1.6-0.1,1.7  c0,1.4,0.1,2.3,0.4,2.9c-0.4-0.3-0.7-0.5-1-0.8c-0.3-0.3-0.5-0.5-0.8-0.7c-0.2-0.2-0.5-0.3-0.8-0.4c-0.3-0.1-0.6-0.2-1-0.2h-1.4  c-0.3,0-0.4,0.2-0.4,0.5v4.1c0,0.6,0,1.1,0.1,1.6c0,0.5,0.2,1,0.4,1.3c0.2,0.4,0.5,0.7,0.9,0.9c0.4,0.2,0.9,0.4,1.6,0.4  c0.3,0,0.9,0,1.7-0.1c0.8,0,1.7-0.1,2.7-0.3s1.9-0.4,2.7-0.8c0.9-0.3,1.5-0.8,1.8-1.3c0.4-0.6,0.6-1,0.8-1.3  c0.1-0.3,0.4-0.6,0.8-0.9c0,0.1-0.1,0.2-0.1,0.2c0,0.2,0.1,0.4,0.2,0.5c0.1,0.1,0.2,0.4,0.2,0.8c0,0.1,0,0.2,0,0.2  c0,0.1,0,0.2,0,0.2l0.2,2.5c0.1,0.7,0.2,1.4,0.2,1.9c0,0.5,0.1,1.1,0.1,1.6c0.1,0.5,0.2,1.1,0.3,1.7c0.1,0.6,0.4,1.3,0.8,2.2  c-0.2-0.1-0.6-0.2-1.1-0.3c-0.5-0.1-1-0.2-1.6-0.2c-0.6-0.1-1.1-0.1-1.7-0.1c-0.6,0-1,0-1.3,0H472l-4.7,0.5H466l-0.5,0.2h-1.3  c-1.2-0.2-2.2-0.5-3.1-0.7c-0.9-0.2-1.9-0.3-3-0.3c-0.1,0-0.3,0-0.7,0.1c-0.4,0-0.7,0.1-1,0.1c-0.3,0-0.5,0.1-0.5,0.1  c-0.1,0-0.6,0-1.4,0.1c-0.8,0.1-1.5,0.2-2.2,0.3c0.1,0,0.2-0.4,0.5-1c0.2-0.6,0.5-1.3,0.8-2c0.3-0.7,0.5-1.4,0.7-2.1  s0.3-1.1,0.3-1.2c0-0.7,0.1-1.3,0.3-1.8c0.2-0.5,0.3-1.1,0.3-1.8c0-2,0-3.7,0-5.1c0-1.4,0-2.6,0.1-3.6c0-1,0-1.8,0.1-2.5  c0-0.7,0-1.2,0-1.7s0-0.9,0-1.4c0-0.4-0.1-0.9-0.1-1.4c-0.1-1.5-0.4-2.9-0.7-4.3c-0.4-1.4-0.9-2.8-1.6-4.2c0.7,0.2,1.3,0.4,2,0.5  c0.6,0.2,1.3,0.3,1.9,0.4h1.3c0.1,0,0.2-0.1,0.2-0.1c0.1,0,0.2,0,0.2-0.1l0.2-0.1c0.8-0.2,1.7-0.4,2.6-0.6c0.9-0.2,1.8-0.3,2.6-0.3  h3.8c0.2,0,0.5,0.1,1,0.2c0.5,0.1,1,0.3,1.6,0.4c0.6,0.1,1.1,0.3,1.7,0.4c0.6,0.1,1,0.2,1.4,0.2c0,0,0.2,0,0.5-0.1  c0.3,0,0.5-0.1,0.7-0.1c0.2,0,0.3-0.1,0.4-0.1h1.1c0.3,0,0.8-0.2,1.4-0.5c0.6-0.3,1.1-0.5,1.4-0.7L478.1,16.1z M448.8,16.1l-0.6,3.5  l0.4,3.6c-0.4-0.4-0.8-0.8-1.2-1.2s-1.1-0.8-1.9-1.2c-0.8-0.4-1.9-0.6-3.1-0.9c-1.3-0.2-2.9-0.3-4.8-0.3c-1.2,0-2,0.3-2.5,0.8  c-0.5,0.6-0.7,1.4-0.7,2.5v4.4c0,0.1,0.1,0.1,0.2,0.2c0.2,0,0.3,0.1,0.5,0.1h0.2c0.6-0.2,1-0.3,1.3-0.3c0.3,0,0.6-0.1,0.8-0.2  c0.2-0.1,0.5-0.2,0.8-0.5c0.3-0.2,0.7-0.5,1.3-1h0.5l-0.1,0.1c-0.1,0.4-0.2,0.7-0.2,0.8c-0.1,0.1-0.1,0.2-0.2,0.3  c-0.1,0.1-0.1,0.2-0.1,0.4c0,0.2,0,0.6,0,1.1c-0.1,1-0.1,1.6-0.1,1.7c0,1.4,0.1,2.3,0.4,2.9c-0.4-0.3-0.7-0.5-1-0.8  c-0.3-0.3-0.5-0.5-0.8-0.7c-0.2-0.2-0.5-0.3-0.8-0.4c-0.3-0.1-0.6-0.2-1-0.2h-1.4c-0.3,0-0.4,0.2-0.4,0.5v4.1c0,0.6,0,1.1,0.1,1.6  c0,0.5,0.2,1,0.4,1.3c0.2,0.4,0.5,0.7,0.9,0.9c0.4,0.2,0.9,0.4,1.6,0.4c0.3,0,0.9,0,1.7-0.1c0.8,0,1.7-0.1,2.7-0.3  c1-0.2,1.9-0.4,2.7-0.8c0.9-0.3,1.5-0.8,1.8-1.3c0.4-0.6,0.6-1,0.8-1.3c0.1-0.3,0.4-0.6,0.8-0.9c0,0.1-0.1,0.2-0.1,0.2  c0,0.2,0.1,0.4,0.2,0.5c0.1,0.1,0.2,0.4,0.2,0.8c0,0.1,0,0.2,0,0.2c0,0.1,0,0.2,0,0.2l0.2,2.5c0.1,0.7,0.2,1.4,0.2,1.9  c0,0.5,0.1,1.1,0.1,1.6c0.1,0.5,0.2,1.1,0.3,1.7c0.1,0.6,0.4,1.3,0.8,2.2c-0.2-0.1-0.6-0.2-1.1-0.3c-0.5-0.1-1-0.2-1.6-0.2  c-0.6-0.1-1.1-0.1-1.7-0.1c-0.6,0-1,0-1.3,0h-1.1l-4.7,0.5h-1.3l-0.5,0.2h-1.3c-1.2-0.2-2.2-0.5-3.1-0.7c-0.9-0.2-1.9-0.3-3-0.3  c-0.1,0-0.3,0-0.7,0.1c-0.4,0-0.7,0.1-1.1,0.1c-0.3,0-0.5,0.1-0.5,0.1c-0.1,0-0.6,0-1.4,0.1c-0.8,0.1-1.5,0.2-2.2,0.3  c0.1,0,0.2-0.4,0.5-1c0.2-0.6,0.5-1.3,0.8-2c0.3-0.7,0.5-1.4,0.7-2.1s0.3-1.1,0.3-1.2c0-0.7,0.1-1.3,0.3-1.8  c0.2-0.5,0.3-1.1,0.3-1.8c0-2,0-3.7,0-5.1c0-1.4,0-2.6,0.1-3.6c0-1,0-1.8,0.1-2.5c0-0.7,0-1.2,0-1.7s0-0.9,0-1.4  c0-0.4-0.1-0.9-0.1-1.4c-0.1-1.5-0.4-2.9-0.7-4.3c-0.4-1.4-0.9-2.8-1.6-4.2c0.7,0.2,1.3,0.4,1.9,0.5c0.6,0.2,1.3,0.3,2,0.4h1.3  c0.1,0,0.2-0.1,0.2-0.1c0.1,0,0.2,0,0.2-0.1l0.2-0.1c0.8-0.2,1.7-0.4,2.6-0.6c0.9-0.2,1.8-0.3,2.6-0.3h3.8c0.2,0,0.5,0.1,1,0.2  c0.5,0.1,1,0.3,1.6,0.4c0.6,0.1,1.1,0.3,1.7,0.4s1,0.2,1.4,0.2c0,0,0.2,0,0.5-0.1c0.3,0,0.5-0.1,0.7-0.1c0.2,0,0.3-0.1,0.4-0.1h1.1  c0.3,0,0.8-0.2,1.4-0.5c0.6-0.3,1.1-0.5,1.4-0.7L448.8,16.1z M389.4,12.4c-0.8,0.9-1.4,2-1.8,3.1c-0.4,1.2-0.6,2.2-0.6,3.2  c0,0.3,0.1,0.9,0.3,1.8c0.2,0.9,0.5,1.9,0.8,3c0.3,1.1,0.6,2.2,0.9,3.3c0.3,1.1,0.5,2,0.7,2.7l0.4,0.4c0.1-0.2,0.3-0.6,0.5-1.2  c0.2-0.6,0.3-1,0.3-1.3L393,19l-0.1-1.6c0-0.4-0.1-1-0.4-1.7c-0.3-0.7-0.5-1.3-0.9-1.8c0.8,0.2,1.6,0.4,2.2,0.6  c0.6,0.1,1.2,0.3,1.8,0.3c0.6,0.1,1.2,0.1,1.7,0.1c0.6,0,1.2,0,1.9,0c0.9,0,2-0.1,3.1-0.2c1.1-0.1,2.1-0.3,2.9-0.5  c-0.4,0.8-0.8,1.6-1.2,2.4c-0.4,0.8-0.5,1.7-0.5,2.6v1.8c0.2,0.5,0.4,1.1,0.5,1.9c0.2,0.7,0.3,1.5,0.5,2.3c0.2,0.8,0.4,1.6,0.7,2.5  c0.2,0.9,0.5,1.7,0.8,2.5c0.8-2.3,1.4-4.2,2-5.8c0.5-1.6,0.8-2.9,0.9-4l1-4.4c0-0.7-0.1-1.4-0.4-2.3c-0.3-0.9-0.6-1.7-0.9-2.7  c0,0,0.3,0.1,0.8,0.2c0.5,0.1,1,0.2,1.6,0.4c0.6,0.1,1.2,0.3,1.8,0.4c0.6,0.1,1,0.2,1.2,0.2l2.2-0.3c0.4,0,0.8-0.1,1.3-0.3  c0.5-0.2,1-0.4,1.5-0.6c0.5-0.2,1-0.4,1.5-0.6c0.5-0.2,0.9-0.3,1.3-0.4c-0.2,0.4-0.5,0.9-0.9,1.7c-0.4,0.8-0.8,1.7-1.2,2.6  c-0.4,1-0.8,2-1.3,3c-0.4,1-0.8,2-1.1,2.8c-0.3,0.8-0.6,1.5-0.8,2.1c-0.2,0.6-0.3,0.9-0.3,0.9c0,0.3-0.2,1-0.5,2.1  c-0.3,1.1-0.7,2.5-1.2,4.1c-0.4,1.6-0.9,3.3-1.3,5.2c-0.4,1.9-0.8,3.6-1,5.3v1.3c0,0.9,0.2,1.8,0.5,2.5c0.3,0.8,0.8,1.7,1.3,2.7  c-0.2,0-0.6-0.1-1.3-0.2c-0.7-0.1-1.5-0.2-2.4-0.3c-0.9-0.1-1.8-0.2-2.8-0.3c-0.9-0.1-1.7-0.1-2.4-0.1c-0.2,0-0.3,0-0.4,0  c-0.1,0-0.2,0-0.3,0c-0.5,0-1.1,0-1.7,0.1c-0.6,0-1.2,0.1-1.8,0.2c-0.6,0.1-1,0.1-1.4,0.2c-0.4,0.1-0.6,0.1-0.6,0.2  c0-0.1,0.2-0.4,0.4-0.7s0.5-0.8,0.8-1.3c0.3-0.5,0.5-1.1,0.8-1.7c0.2-0.6,0.3-1.3,0.3-2c0-0.4,0-1.1-0.1-1.9  c-0.1-0.8-0.2-1.7-0.3-2.6s-0.3-1.8-0.4-2.7c-0.2-0.9-0.3-1.6-0.5-2.2c0-0.1-0.1-0.5-0.3-1c-0.2-0.5-0.3-1.1-0.5-1.7  c-0.2-0.6-0.5-1.4-0.8-2.4c0,0.1,0,0.2-0.1,0.2c-0.2,0.5-0.4,1.3-0.8,2.5c-0.4,1.2-0.8,2.4-1.2,3.8c-0.4,1.4-0.8,2.8-1.1,4.1  c-0.3,1.4-0.4,2.5-0.4,3.3v0.4c0,0.1,0,0.2,0.1,0.3l0.4,2.7c0,0.2,0.1,0.5,0.3,0.9c0.2,0.4,0.4,0.7,0.6,1.1c0.2,0.4,0.5,0.7,0.7,1.1  c0.2,0.3,0.3,0.6,0.4,0.8h-0.7c-0.1,0-0.4,0-0.8-0.1c-0.4-0.1-0.8-0.2-1.3-0.3c-0.5-0.1-1-0.2-1.4-0.3c-0.5-0.1-0.8-0.2-1.1-0.2h-4  c-0.9,0.2-1.8,0.4-2.7,0.7c-0.9,0.2-1.9,0.5-2.9,0.7c0,0,0.1-0.2,0.2-0.6c0.1-0.3,0.2-0.7,0.3-1.2c0.1-0.4,0.2-0.9,0.3-1.3  c0.1-0.4,0.2-0.7,0.2-0.8v-4.6c0-1.2-0.2-2.6-0.5-4.3c-0.3-1.7-0.7-3.4-1.2-5.2c-0.5-1.8-1-3.6-1.5-5.5c-0.6-1.8-1.1-3.5-1.6-5  c0-0.2-0.2-0.5-0.5-1.2c-0.3-0.6-0.6-1.3-1-2c-0.3-0.7-0.7-1.4-1-2c-0.3-0.6-0.5-1-0.7-1.1v-0.2c0.1,0,0.4,0.1,0.8,0.2  c0.5,0.1,1,0.3,1.5,0.4c0.6,0.1,1.1,0.3,1.6,0.4c0.5,0.1,0.9,0.2,1.2,0.2h4.1c0.2,0,0.5-0.1,0.9-0.2c0.5-0.1,0.9-0.2,1.5-0.4  c0.5-0.1,1-0.3,1.4-0.4c0.4-0.1,0.7-0.2,0.7-0.2H389.4z M361.2,20c-0.4,0.3-0.8,0.7-1.1,1.1c-0.3,0.4-0.6,0.8-0.8,1.3  c-0.2,0.4-0.3,0.8-0.3,1c0,0.1,0,0.4-0.1,0.9c-0.1,0.5-0.1,1.1-0.1,1.8c0,1.4-0.1,2.6-0.1,3.6c0,1-0.1,2-0.1,3.1c0,1.1,0,1.9,0,2.6  c0.1,0.4,0.2,0.8,0.4,1.2c0.2,0.4,0.4,0.8,0.8,1.2c0.3,0.4,0.7,0.7,1.2,0.9c0.5,0.3,1,0.4,1.5,0.4c0.6,0,1.1-0.2,1.6-0.6  c0.5-0.4,0.9-0.9,1.2-1.4c0.3-0.5,0.6-1,0.8-1.6c0.2-0.5,0.3-0.9,0.3-1.2v-9.1c0-0.1-0.1-0.5-0.3-1.1c-0.1-0.6-0.4-1.2-0.7-1.9  c-0.3-0.7-0.7-1.3-1.2-1.8c-0.5-0.5-1.1-0.8-1.8-0.8C362,19.6,361.6,19.7,361.2,20 M362.9,11.5c2.2,0,4.1,0.4,5.5,1.3  c1.4,0.8,2.6,1.9,3.4,3.2c0.9,1.3,1.5,2.7,1.9,4.2c0.4,1.5,0.7,3,1,4.4V32c0,1.4-0.2,3.1-0.6,4.9c-0.4,1.8-1,3.5-1.9,5.1  c-0.9,1.6-2.1,2.9-3.6,4c-1.5,1.1-3.4,1.6-5.7,1.6c-2.5,0-4.6-0.4-6.2-1.3c-1.7-0.9-3-2-4-3.5c-1-1.4-1.7-3-2.2-4.7  c-0.4-1.7-0.6-3.5-0.6-5.1v-8c0-1.1,0.2-2.4,0.6-4c0.4-1.5,1.1-3,2-4.4c0.9-1.4,2.1-2.6,3.5-3.6c1.5-1,3.2-1.5,5.3-1.5H362.9z   M339,12.4c-0.6,0.4-1.2,1-1.9,1.5c-0.6,0.6-1.2,1.2-1.7,1.8c-0.5,0.6-1,1.3-1.3,2c-0.3,0.7-0.5,1.3-0.5,1.9v15c0,0.8,0.2,1.4,0.6,2  c0.4,0.6,1,1,1.8,1.1c0.6,0.1,1.1,0.1,1.7,0.1h1.7c0.9,0,1.7,0,2.5-0.1c0.7-0.1,1.3-0.2,1.6-0.3c0.1,0,0.3-0.1,0.6-0.3  c0.3-0.1,0.6-0.3,0.8-0.5c0.3-0.2,0.5-0.4,0.8-0.7c0.2-0.2,0.4-0.5,0.5-0.7c0,0,0-0.1,0.1-0.2c0-0.1,0.1-0.1,0.1-0.1  c0,0,0.1,0.1,0.1,0.2c0,0.6,0,1.3,0,2c0,0.7,0,1.4,0.1,2.1c0,0.7,0,1.3,0.1,1.9c0,0.6,0.1,1,0.1,1.3L347,43c0.2,0.8,0.4,1.4,0.5,1.9  c0.2,0.5,0.3,0.8,0.4,1.1c0.1,0.2,0.2,0.4,0.3,0.5c0.1,0.1,0.1,0.2,0.1,0.2c-0.1,0-0.6-0.1-1.5-0.3c-0.9-0.2-2-0.3-3.2-0.3h-6.5  l-1.8,0.2c-0.6,0-1.2,0-1.7-0.1c-0.5,0-1.1-0.1-1.6-0.1c-0.6-0.1-1.1-0.1-1.7-0.2c-0.6,0-1.3-0.1-2.1-0.1h-1.7c-0.7,0-1.5,0-2.3,0.1  c-0.8,0.1-1.6,0.2-2.3,0.6l-0.2,0.1h-0.2c0.5-0.7,0.9-1.2,1.4-1.7c0.4-0.4,0.8-0.9,1.2-1.4c0.3-0.5,0.6-1.1,0.8-1.7  c0.2-0.6,0.3-1.5,0.3-2.5V19.1c0-0.9-0.1-1.7-0.4-2.4c-0.3-0.7-0.6-1.3-1-1.8c-0.4-0.5-0.7-0.9-1-1.2c-0.3-0.3-0.5-0.6-0.7-0.7  l0.7,0.1c1.1,0.1,2.1,0.2,3.1,0.2c1,0.1,1.8,0.1,2.5,0.1l5.2-0.4c0.8,0,1.5-0.1,2.2-0.2c0.7-0.1,1.5-0.3,2.5-0.4H339z M309.5,12.4  c-0.6,0.4-1.2,1-1.9,1.5c-0.6,0.6-1.2,1.2-1.7,1.8c-0.5,0.6-1,1.3-1.3,2c-0.3,0.7-0.5,1.3-0.5,1.9v15c0,0.8,0.2,1.4,0.6,2  c0.4,0.6,1,1,1.8,1.1c0.6,0.1,1.1,0.1,1.7,0.1h1.7c0.9,0,1.7,0,2.5-0.1c0.7-0.1,1.3-0.2,1.6-0.3c0.1,0,0.3-0.1,0.6-0.3  c0.3-0.1,0.6-0.3,0.8-0.5c0.3-0.2,0.5-0.4,0.8-0.7c0.2-0.2,0.4-0.5,0.5-0.7c0,0,0-0.1,0.1-0.2c0-0.1,0.1-0.1,0.1-0.1  c0,0,0.1,0.1,0.1,0.2c0,0.6,0,1.3,0,2c0,0.7,0,1.4,0.1,2.1c0,0.7,0.1,1.3,0.1,1.9c0,0.6,0.1,1,0.1,1.3l0.1,0.4  c0.2,0.8,0.4,1.4,0.5,1.9c0.2,0.5,0.3,0.8,0.5,1.1c0.1,0.2,0.2,0.4,0.3,0.5c0.1,0.1,0.1,0.2,0.1,0.2c-0.1,0-0.6-0.1-1.5-0.3  c-0.9-0.2-2-0.3-3.2-0.3h-6.5l-1.8,0.2c-0.6,0-1.2,0-1.7-0.1c-0.5,0-1.1-0.1-1.6-0.1c-0.6-0.1-1.1-0.1-1.7-0.2  c-0.6,0-1.3-0.1-2.1-0.1h-1.7c-0.7,0-1.5,0-2.3,0.1c-0.8,0.1-1.6,0.2-2.3,0.6l-0.2,0.1h-0.2c0.5-0.7,0.9-1.2,1.4-1.7  c0.4-0.4,0.8-0.9,1.2-1.4c0.3-0.5,0.6-1.1,0.8-1.7c0.2-0.6,0.3-1.5,0.3-2.5V19.1c0-0.9-0.1-1.7-0.4-2.4c-0.3-0.7-0.6-1.3-1-1.8  c-0.4-0.5-0.7-0.9-1-1.2c-0.3-0.3-0.5-0.6-0.7-0.7l0.7,0.1c1.1,0.1,2.1,0.2,3.1,0.2c1,0.1,1.8,0.1,2.5,0.1L304,13  c0.8,0,1.5-0.1,2.2-0.2c0.7-0.1,1.5-0.3,2.5-0.4H309.5z M272.1,27.7c-0.3,1.1-0.7,2.2-1,3.4c-0.4,1.2-0.7,2.2-0.9,3.1  c-0.3,0.9-0.4,1.5-0.4,1.7v0.2h5.9v-0.4c0-0.2-0.1-0.8-0.4-1.7c-0.2-0.9-0.5-2-0.9-3.1c-0.3-1.1-0.7-2.2-1-3.3  c-0.3-1-0.5-1.8-0.6-2.2C272.6,25.8,272.4,26.6,272.1,27.7 M270.3,13c1.1,0.4,2.2,0.6,3.3,0.6c0.2,0,0.4-0.1,0.5-0.1  c0.1,0,0.2,0,0.3,0c0.2,0,0.3,0,0.4,0.1c0.5-0.1,1.1-0.2,1.7-0.3c0.6-0.1,1.2-0.3,1.7-0.5c0.6-0.2,1.1-0.3,1.5-0.4  c0.4-0.1,0.7-0.2,0.9-0.2h0.2c0,0-0.1,0.3-0.2,0.7c-0.1,0.4-0.3,0.9-0.5,1.4c-0.2,0.5-0.3,1-0.5,1.5c-0.1,0.5-0.2,0.9-0.2,1.1  l-0.1,1.2c0,0.2,0,0.3,0.1,0.4c0.5,1.7,0.9,3.2,1.3,4.6c0.4,1.3,0.8,2.8,1.3,4.4c0.5,1.6,0.9,3.1,1.3,4.6c0.4,1.5,0.8,2.9,1.1,4.1  c0.3,1.2,0.5,2.1,0.7,2.6c0.2,0.9,0.5,1.7,0.8,2.5c0.3,0.8,0.7,1.5,1.1,2.3c0.4,0.7,0.9,1.5,1.4,2.3s1,1.6,1.6,2.5  c-0.7-0.2-1.4-0.4-2.1-0.6s-1.4-0.3-1.9-0.3c-0.8-0.1-1.6-0.2-2.3-0.2c-0.7,0-1.2,0-1.3,0h-1.1c-1.5,0.2-2.6,0.3-3.3,0.4  c-0.7,0.1-1.1,0.1-1.2,0.2c0-0.2,0.2-0.6,0.6-1.2c0.3-0.6,0.5-1.4,0.5-2.3c0-0.1,0.1-0.4,0.2-1.1c0-0.2-0.1-0.6-0.2-1  c-0.1-0.4-0.3-0.8-0.5-1.2c-0.2-0.4-0.4-0.8-0.6-1.1c-0.2-0.3-0.4-0.5-0.5-0.6H270c-0.4,0-0.8,0-1,0.1c-0.2,0.1-0.3,0.2-0.4,0.3  c-0.1,0.2-0.1,0.4-0.1,0.7c0,0.3-0.1,0.6-0.2,1.1v0.9c0,0.2,0.1,0.5,0.1,0.9v0.7c0,0.4,0.1,0.8,0.2,1.2c0.1,0.4,0.4,0.8,0.9,1.3  h-0.4c0,0-0.2-0.1-0.6-0.2c-0.4-0.1-0.8-0.2-1.2-0.2c-0.4-0.1-0.9-0.1-1.3-0.2c-0.4-0.1-0.8-0.1-1-0.1h-3.2c-0.7,0-1.3,0.1-2,0.2  c-0.6,0.2-1.4,0.3-2.3,0.4c0.1-0.2,0.4-0.7,0.9-1.3c0.5-0.6,0.9-1.3,1.4-2c0.5-0.7,1-1.5,1.4-2.2c0.4-0.7,0.6-1.3,0.6-1.8  c0.6-1.9,1.1-3.5,1.6-5c0.4-1.4,0.9-3,1.5-4.7c0.5-1.7,1-3.3,1.5-4.8c0.4-1.5,0.8-2.8,1.1-4c0.3-1.1,0.5-1.8,0.5-2.1  c0-0.3,0.1-0.7,0.2-1.3c0.2-0.5,0.2-1.1,0.2-1.6c0-0.4,0-0.8-0.1-1c-0.1-0.2-0.2-0.5-0.3-0.7c-0.1-0.2-0.3-0.5-0.4-0.8  c-0.2-0.3-0.3-0.8-0.5-1.4C268.1,12.2,269.2,12.6,270.3,13 M228.6,3.7c1,0.2,2,0.4,2.9,0.6l3.6,0.4c0.7-0.1,1.4-0.2,2.2-0.4  c0.8-0.1,1.5-0.3,2.2-0.5c-0.5,0.7-0.9,1.4-1.3,2c-0.3,0.6-0.6,1.2-0.8,1.7c-0.2,0.6-0.4,1.1-0.5,1.7c-0.1,0.6-0.2,1.2-0.4,1.9v11.1  c0,0.1,0,0.3,0,0.5c0,0.2,0.1,0.3,0.2,0.3h6.1c0.1,0,0.2,0,0.4-0.1c0.2-0.1,0.3-0.2,0.3-0.4c0-0.1,0-0.1-0.1-0.2V11.3  c-0.2-1.3-0.4-2.6-0.8-4c-0.3-1.4-0.7-2.8-1.3-4.1c0.7,0.3,1.4,0.5,2,0.6c0.7,0.1,1.4,0.2,2,0.3c0.6,0.1,1,0.1,1.3,0.2  c0.3,0,0.6,0,0.9,0c0.2,0,0.6,0,1.1-0.1c0.5-0.1,1-0.1,1.4-0.1c0.6-0.1,1.2-0.2,1.8-0.3c0.6-0.1,1.3-0.3,2-0.6  c-0.6,1.4-1,2.8-1.4,4.2c-0.4,1.4-0.7,2.9-0.8,4.3v3.4l0.2,0.5l-0.2,0.7v23.5l0.1,0.3c0.3,1.1,0.7,2.2,1.1,3.4  c0.4,1.2,1,2.3,1.8,3.3c-0.9-0.3-1.8-0.6-2.7-0.9c-0.9-0.3-1.8-0.5-2.7-0.6c-0.4,0-0.7-0.1-1-0.1c-0.3,0-0.5,0-0.7,0  c-0.4,0-0.7,0-0.8,0.1c-0.1,0-0.2,0.1-0.3,0.1c-0.1,0-0.4,0-0.7,0c-0.3,0-0.8,0.1-1.4,0.2c-0.7,0-1.3,0.1-2,0.3s-1.3,0.4-1.8,0.6  c0.1-0.2,0.2-0.6,0.5-1.1c0.2-0.5,0.5-0.9,0.8-1.5c0.3-0.5,0.5-1,0.7-1.5c0.2-0.5,0.3-0.9,0.3-1.1c0-0.1,0-0.3,0.1-0.6  c0-0.3,0.1-0.6,0.2-1s0.1-0.7,0.1-1c0-0.3,0.1-0.6,0.1-0.8V28c0-0.4-0.1-0.7-0.4-0.8c-0.3-0.1-0.6-0.1-0.9-0.1h-5.2  c-0.1,0.1-0.2,0.3-0.3,0.6c-0.1,0.3-0.1,0.4-0.1,0.6v11.4c0,1.2,0.3,2.5,0.8,3.6c0.6,1.2,1.2,2.5,1.9,3.8c-0.8-0.2-1.6-0.5-2.4-0.8  c-0.8-0.3-1.7-0.5-2.6-0.6H232c-0.1,0-0.4,0-0.9,0c-0.5,0-1.1,0.1-1.8,0.2c-0.6,0-1.1,0.2-1.7,0.5c-0.6,0.3-1.1,0.5-1.7,0.7  c0-0.2,0.2-0.6,0.4-1.4c0.2-0.7,0.5-1.5,0.8-2.4c0.3-0.9,0.5-1.7,0.7-2.4c0.2-0.8,0.3-1.3,0.3-1.5V10c0-0.5-0.1-1.1-0.3-1.7  c-0.2-0.6-0.4-1.3-0.7-2c-0.3-0.7-0.5-1.3-0.8-1.9c-0.3-0.6-0.5-1.1-0.7-1.6C226.6,3.2,227.6,3.5,228.6,3.7 M174.2,12.6  c1,0.3,1.8,0.4,2.5,0.4h1c0.3,0,0.7,0,1-0.1c0.4,0,0.8-0.1,1.2-0.2c0.4-0.1,1-0.1,1.7-0.3c0.2,0,0.5-0.1,0.8-0.1c0.3,0,0.7,0,1.1,0  c0.5,0,1.1,0,1.7,0c0.6,0,1.2,0.1,1.8,0.1c0.6,0.1,1.1,0.1,1.6,0.2c0.5,0.1,0.9,0.2,1.2,0.2c0.4,0,0.8,0.1,1.2,0.1  c0.4,0.1,0.9,0.1,1.4,0.2c0.5,0,0.9,0.1,1.4,0.1c0.5,0,0.8,0,1.2,0c0.7,0,1.5-0.1,2.5-0.2c1-0.2,1.7-0.5,2.3-0.9v0.2  c0,0.2-0.1,0.6-0.2,1.3c-0.1,0.7-0.3,1.5-0.4,2.3c-0.2,0.9-0.3,1.7-0.4,2.6c-0.1,0.9-0.2,1.6-0.3,2.2l-0.5,2v4.2  c-0.3-0.3-0.5-0.6-0.8-0.8c-0.2-0.2-0.4-0.4-0.6-0.6c-0.2-0.2-0.3-0.4-0.5-0.6c-0.2-0.2-0.3-0.5-0.5-0.9c0-0.1,0-0.2-0.1-0.2  c-0.2-0.6-0.6-1.1-1.3-1.6c-0.7-0.5-1.6-0.7-2.9-0.7c-0.7,0-1.1,0.3-1.3,0.8c-0.2,0.5-0.3,1.1-0.3,1.6c0,1.6-0.1,2.9-0.1,4  c0,1.1-0.1,2.2-0.1,3.4c0,1.2,0,2.1,0,2.8v5.2c0,0.5,0.1,1.1,0.2,1.8c0.2,0.7,0.4,1.3,0.7,2c0.3,0.7,0.6,1.3,1,2  c0.4,0.6,0.7,1.2,1.1,1.6c-0.8-0.2-1.6-0.4-2.4-0.5c-0.8-0.1-1.6-0.2-2.4-0.3c-0.8-0.1-1.6-0.2-2.3-0.3c-0.7-0.1-1.2-0.2-1.3-0.2  c-0.4,0-0.9,0-1.5,0.1c-0.6,0.1-1.2,0.1-1.8,0.2c-0.6,0.1-1.2,0.2-1.7,0.3s-1,0.2-1.2,0.4c0.9-1.4,1.6-2.7,1.9-4.1  c0.4-1.4,0.6-2.7,0.7-4l0.5-6.5v-9.4c-0.1-0.6-0.2-1-0.2-1.2c0-0.3-0.3-0.4-0.7-0.4c-0.6,0-1.1,0.1-1.5,0.1  c-0.4,0.1-0.8,0.2-1.1,0.4c-0.3,0.2-0.6,0.4-0.8,0.6c-0.2,0.2-0.5,0.5-0.8,0.8c-0.5,0.6-1,1.1-1.3,1.6c-0.4,0.5-0.8,1.1-1.2,1.7  c0-1.1-0.1-1.9-0.1-2.5v-2.1v-2.6c0-0.9,0-1.6-0.1-2.1c0-0.5,0-1-0.1-1.4c-0.1-0.4-0.1-0.8-0.2-1.1c-0.1-0.4-0.2-0.7-0.4-1.1  c-0.1-0.4-0.3-0.8-0.4-1.3C172.5,12.2,173.3,12.4,174.2,12.6 M154.4,13c0.1,0,0.4,0.1,0.9,0.2c0.5,0.1,1.1,0.3,1.8,0.5  c0.7,0.2,1.4,0.4,2,0.5c0.7,0.2,1.2,0.3,1.6,0.4h2.3c0.8-0.1,1.8-0.3,3.1-0.6c1.2-0.3,2.3-0.5,3.2-0.7c-0.3,0.6-0.6,1.1-1,1.7  c-0.4,0.6-0.7,1.2-1.1,1.8c-0.3,0.6-0.6,1.2-0.9,1.8c-0.2,0.6-0.4,1.3-0.5,1.9V40c0,1,0.3,2.1,1,3.2c0.7,1.1,1.3,2.2,1.9,3.3  c-0.9-0.1-2-0.4-3.2-0.8c-1.2-0.4-2.3-0.6-3.4-0.6h-2.7l-5.2,0.9h-0.5c0.2-0.2,0.5-0.7,0.8-1.3c0.3-0.6,0.7-1.3,1.1-2  s0.7-1.4,0.9-2.1c0.3-0.7,0.4-1.2,0.4-1.6V20.2c0-0.4-0.2-0.9-0.5-1.6c-0.3-0.7-0.7-1.4-1.1-2.2c-0.4-0.8-0.8-1.4-1.2-2.1  c-0.4-0.6-0.7-1-0.8-1.3H154.4z M150.1,14c-0.3,0.6-0.5,1.2-0.5,1.9c0,0.2,0,0.6-0.1,1c-0.1,0.4-0.2,0.8-0.3,1.3  c-0.1,0.4-0.2,0.8-0.3,1.2c-0.1,0.4-0.1,0.7-0.1,0.8v17.3c-0.3,1.6-0.8,3-1.5,4.2c-0.7,1.3-1.6,2.3-2.6,3.2c-1,0.9-2.2,1.5-3.4,2  c-1.3,0.5-2.6,0.7-3.9,0.7h-2.9c-1.5,0-2.8-0.3-4-1s-2.2-1.5-3.1-2.5c-0.9-1-1.6-2.2-2-3.5c-0.5-1.3-0.7-2.5-0.7-3.8V19  c0-0.3-0.1-0.7-0.3-1.3c-0.2-0.6-0.4-1.2-0.6-1.8c-0.2-0.6-0.5-1.2-0.7-1.7c-0.2-0.5-0.4-0.8-0.5-1h0.2l2.7,0.7h1.3  c0.1,0,0.3,0,0.6,0c0.3,0,0.7,0.1,1.1,0.1c0.4,0,0.8,0.1,1.1,0.1c0.4,0,0.6,0,0.7,0s0.2,0,0.4-0.1c0.1-0.1,0.2-0.1,0.3-0.1h0.9  c0.1,0,0.3,0,0.5-0.1c0.3-0.1,0.6-0.1,0.9-0.2c0.3-0.1,0.6-0.2,0.9-0.2c0.3-0.1,0.4-0.1,0.4-0.1h0.5c-0.7,1.1-1.2,2.3-1.6,3.5  s-0.6,2.4-0.7,3.5v16.1c0,0.9,0.3,1.8,1,2.6c0.7,0.8,1.6,1.2,2.6,1.2c1.6,0,2.6-0.5,3.1-1.4c0.5-0.9,0.8-2,0.8-3.3v-17  c0-0.4-0.1-0.9-0.2-1.4c-0.1-0.5-0.3-1.1-0.5-1.6c-0.2-0.6-0.4-1.1-0.7-1.6c-0.2-0.5-0.5-0.9-0.7-1.2v-0.2c0.1,0,0.3,0.1,0.6,0.2  s0.6,0.2,0.9,0.3c0.3,0.1,0.7,0.2,0.9,0.2c0.3,0.1,0.4,0.1,0.5,0.1h5.3c0.1,0,0.3,0,0.6-0.1c0.3-0.1,0.7-0.2,1.2-0.3  c0.5-0.1,0.9-0.2,1.4-0.4c0.5-0.1,0.9-0.3,1.3-0.4C150.7,12.8,150.4,13.4,150.1,14 M120.5,7.7l0.5,0.2l-0.4,0.8  c-0.1,0.2-0.2,0.4-0.3,0.6c-0.1,0.2-0.1,0.4-0.2,0.5c0,0.1-0.1,0.4-0.3,0.9c-0.2,0.5-0.4,1.1-0.6,1.8c-0.2,0.7-0.4,1.3-0.6,1.9  c-0.2,0.6-0.3,1.1-0.3,1.4c0,0.3-0.2,0.8-0.3,1.6c-0.2,0.8-0.3,1.4-0.5,2c-0.1,0.6-0.2,0.9-0.3,1c0,0,0,0.3,0,0.7c0,0.4,0,0.9,0,1.4  c0,0.6,0,1.2,0,1.8c0,0.6,0,1.2,0,1.7h-0.4c-0.1-0.2-0.2-0.4-0.3-0.8c-0.1-0.4-0.3-0.7-0.4-1.1c-0.1-0.4-0.3-0.8-0.5-1.1  c-0.2-0.4-0.3-0.6-0.4-0.8c-0.3-0.4-0.7-0.7-1.3-1.1c-0.6-0.3-1.2-0.7-1.9-1.2c-0.9-0.4-1.9-0.8-3.1-1c-1.1-0.2-2.2-0.3-3.2-0.3  c-1.2,0-2,0.4-2.5,1.1c-0.5,0.7-0.7,1.5-0.7,2.3c0,1.1,0.3,1.9,1,2.4c0.7,0.5,1.5,0.8,2.5,1c1,0.2,2.1,0.4,3.3,0.6  c1.2,0.2,2.3,0.5,3.4,1c1.4,0.7,2.6,1.4,3.6,2c0.9,0.6,1.7,1.3,2.3,2c0.6,0.7,1,1.4,1.2,2.2c0.3,0.8,0.5,1.7,0.6,2.7  c0,0.2,0.1,0.5,0.1,0.9c0,0.8-0.1,1.6-0.3,2.1c-0.2,0.6-0.4,1.2-0.6,1.9c-0.3,1.2-0.8,2.2-1.6,3c-0.8,0.8-1.6,1.5-2.6,2  c-1,0.5-1.9,0.9-2.9,1.1c-1,0.2-1.9,0.4-2.6,0.4c-0.3,0.1-0.6,0.1-0.9,0.1c-0.2,0-0.3,0-0.5,0c-0.2,0-0.4-0.1-0.6-0.1  c-1.4-0.2-3-0.6-4.5-1c-1.6-0.4-3-0.7-4.2-0.7c-0.9,0-1.8,0.2-2.7,0.6c-0.9,0.4-1.7,0.8-2.5,1.3L93.5,47c0,0,0-0.3,0.2-0.7  c0.1-0.4,0.2-0.8,0.4-1.3c0.1-0.4,0.3-0.9,0.4-1.3c0.1-0.4,0.2-0.7,0.2-0.8c0,0,0-0.2,0.1-0.6c0.1-0.3,0.2-0.8,0.3-1.3  c0.1-0.5,0.2-0.9,0.2-1.2v-4.4l-1.2-4.1l0.6-0.8c0.8,1.1,1.7,2.2,2.6,3.4c0.9,1.2,2,2.2,3.2,3.2c1.2,1,2.5,1.8,4,2.4  c1.5,0.6,3.1,0.9,5,0.9c0.9,0,1.6-0.3,2-1c0.4-0.7,0.7-1.4,0.7-2.1c0-1.5-0.4-2.6-1.3-3.4c-0.9-0.8-1.9-1.4-3.2-1.9  c-1.3-0.5-2.7-0.8-4.2-1.2c-1.5-0.3-2.9-0.8-4.2-1.4c-1.3-0.6-2.4-1.4-3.2-2.5c-0.9-1-1.3-2.5-1.3-4.4v-2.5c0.1-0.9,0.5-1.9,1.1-2.9  c0.6-1,1.3-2,2.2-2.8c0.9-0.9,1.8-1.6,2.8-2.2c1-0.6,2-0.8,3-0.8h2.6c0.9,0.1,1.9,0.3,2.9,0.7c1,0.4,2,0.5,2.9,0.5  c0.4,0,0.6,0,0.8-0.1l2.8-0.6c0.2,0,0.6-0.2,1.1-0.7c0.5-0.4,1-0.9,1.5-1.4c0.5-0.5,1-1,1.4-1.4c0.4-0.4,0.6-0.7,0.7-0.7L120.5,7.7z   M74.1,19.6c-0.4,0.1-0.7,0.2-0.9,0.2v10.4h3.4c0.7,0,1.4-0.1,1.9-0.4c0.5-0.3,1-0.7,1.3-1.1c0.3-0.5,0.6-0.9,0.8-1.5  c0.2-0.5,0.2-1,0.2-1.4v-1.9c0-1.2-0.4-2.3-1.3-3.2c-0.9-0.9-2-1.3-3.3-1.3C75.2,19.4,74.5,19.5,74.1,19.6 M62.2,11.9  c0.8,0.2,1.6,0.4,2.4,0.5c0.8,0.1,1.6,0.3,2.4,0.5h2.5c0.2,0,0.5,0,1.2-0.1c0.6-0.1,1.3-0.2,2.1-0.3c0.8-0.1,1.5-0.2,2.3-0.3  c0.7-0.1,1.3-0.1,1.7-0.1c0.4,0,0.7,0,0.8-0.1c0.1-0.1,0.2-0.1,0.3-0.1c0.1,0,0.2,0,0.3,0.1c0.1,0.1,0.2,0.1,0.4,0.1h1.1  c1.4,0,2.7,0.4,3.9,1.2c1.2,0.8,2.2,1.7,3,2.9c0.8,1.1,1.4,2.4,1.9,3.6c0.4,1.3,0.7,2.4,0.7,3.4c0,0.1,0,0.4,0,0.9  c0,0.5-0.1,1.2-0.2,2c0,0.4-0.1,0.9-0.3,1.5c-0.2,0.6-0.5,1.1-0.8,1.7c-0.4,0.9-0.9,1.6-1.5,2c-0.6,0.5-1.2,0.8-1.6,0.9  c-0.4,0.1-0.7,0.2-0.8,0.2c0,0.1,0.2,0.3,0.7,0.5c0.4,0.2,0.9,0.5,1.4,0.9c0.5,0.4,1,0.9,1.5,1.5c0.5,0.6,0.7,1.4,0.8,2.4l2,8.3  c0,0.5,0.2,1.1,0.7,1.7c0.4,0.6,0.9,1.2,1.5,1.9c0.5,0.6,1,1.3,1.5,1.9c0.5,0.6,0.8,1.2,0.9,1.7c-0.9-0.3-1.9-0.7-2.8-1.1  c-1-0.4-1.9-0.8-2.7-1c-0.2,0-0.6,0-0.9,0c-0.4,0-0.8-0.1-1.1-0.1c-0.4,0-0.7-0.1-1-0.1c-0.3,0-0.5,0-0.5,0c-0.7,0-1.2,0-1.6,0.1  c-0.4,0.1-0.7,0.1-0.8,0.1h-0.7c0,0-0.2-0.2-0.4-0.6c-0.2-0.4-0.5-0.9-0.7-1.5c-0.3-0.6-0.5-1.2-0.8-1.9c-0.2-0.7-0.4-1.3-0.5-1.8  l-0.7-3.1c0,0,0-0.2,0-0.4c0-0.2,0-0.5,0-0.8v-0.8v-0.5c0-0.4,0-0.8-0.1-1.4c-0.1-0.6-0.2-1.1-0.5-1.6c-0.2-0.5-0.6-1-1.1-1.4  c-0.5-0.4-1.1-0.6-1.9-0.7l-2.3-0.2c-0.3,0-0.5,0.2-0.6,0.5c-0.1,0.3-0.1,0.6-0.1,0.9c0,0.3,0,0.5,0,0.7c0,0.2,0,0.3,0,0.4l-0.2,4.7  c0.2,0.4,0.4,0.8,0.5,1.2c0.1,0.4,0.3,0.7,0.4,1.1c0.2,0.4,0.3,0.7,0.5,1.1c0.2,0.4,0.5,0.9,0.8,1.4h-0.7c0,0-0.2,0-0.5-0.1  c-0.3,0-0.7-0.1-1.1-0.1c-0.4,0-0.8-0.1-1.2-0.1c-0.4,0-0.8-0.1-1.1-0.1h-1.4c-0.1,0-0.2-0.1-0.4-0.2h-1.8c-0.9,0.2-1.8,0.5-2.7,0.6  c-0.9,0.2-1.9,0.4-2.9,0.8c1.2-1.8,2-3.5,2.5-5c0.5-1.6,0.8-3.2,0.8-4.9c0.1-2.1,0.1-4.2,0.2-6.4c0-2.2,0.1-4.2,0.1-6  c0-1.8,0-3.3,0-4.5v-1.7l-0.7-3.2c0-0.1-0.1-0.3-0.3-0.7c-0.2-0.3-0.4-0.7-0.6-1c-0.2-0.3-0.5-0.7-0.7-1c-0.2-0.3-0.4-0.5-0.4-0.5  L62.2,11.9z M58.4,14c-0.3,0.6-0.5,1.2-0.5,1.9c0,0.2-0.1,0.6-0.2,1c-0.1,0.4-0.2,0.8-0.3,1.3c-0.1,0.4-0.2,0.8-0.3,1.2  C57,19.8,57,20.1,57,20.2v17.3c-0.3,1.6-0.8,3-1.5,4.2c-0.7,1.3-1.6,2.3-2.6,3.2c-1,0.9-2.2,1.5-3.4,2c-1.3,0.5-2.6,0.7-3.9,0.7  h-2.9c-1.5,0-2.8-0.3-4-1c-1.2-0.7-2.2-1.5-3.1-2.5c-0.9-1-1.6-2.2-2-3.5c-0.5-1.3-0.7-2.5-0.7-3.8V19c0-0.3-0.1-0.7-0.3-1.3  c-0.2-0.6-0.4-1.2-0.6-1.8c-0.2-0.6-0.5-1.2-0.7-1.7c-0.2-0.5-0.4-0.8-0.5-1H31l2.7,0.7H35c0.1,0,0.3,0,0.6,0c0.3,0,0.7,0.1,1.1,0.1  c0.4,0,0.8,0.1,1.1,0.1c0.4,0,0.6,0,0.7,0c0.1,0,0.2,0,0.4-0.1c0.1-0.1,0.2-0.1,0.3-0.1h0.9c0.1,0,0.2,0,0.5-0.1  c0.3-0.1,0.5-0.1,0.9-0.2c0.3-0.1,0.6-0.2,0.9-0.2c0.3-0.1,0.4-0.1,0.5-0.1h0.5c-0.7,1.1-1.2,2.3-1.6,3.5c-0.4,1.2-0.6,2.4-0.7,3.5  v16.1c0,0.9,0.3,1.8,1,2.6c0.7,0.8,1.6,1.2,2.6,1.2c1.6,0,2.6-0.5,3.1-1.4c0.5-0.9,0.8-2,0.8-3.3v-17c0-0.4-0.1-0.9-0.2-1.4  c-0.1-0.5-0.3-1.1-0.5-1.6c-0.2-0.6-0.4-1.1-0.7-1.6c-0.2-0.5-0.5-0.9-0.7-1.2v-0.2c0.1,0,0.3,0.1,0.6,0.2c0.3,0.1,0.6,0.2,0.9,0.3  c0.3,0.1,0.6,0.2,0.9,0.2c0.3,0.1,0.4,0.1,0.5,0.1h5.3c0.1,0,0.3,0,0.6-0.1c0.3-0.1,0.7-0.2,1.2-0.3c0.5-0.1,0.9-0.2,1.4-0.4  c0.5-0.1,0.9-0.3,1.3-0.4C59,12.8,58.7,13.4,58.4,14 M28.8,3.2c-0.2,0.7-0.5,1.2-0.6,1.5s-0.4,0.5-0.5,0.8c-0.2,0.2-0.3,0.4-0.5,0.7  c-0.1,0.3-0.3,0.7-0.4,1.3l-0.2,4.7l0.1,0.2c0.1,0.3,0.2,0.7,0.2,1.1c0.1,0.4,0.1,0.9,0.1,1.5c0,0.1,0.1,0.2,0.1,0.2v2  c0,0,0-0.1-0.1-0.2c0-0.1-0.1-0.2-0.1-0.3c-0.2-0.6-0.5-1.2-1-2c-0.5-0.7-1.1-1.5-1.9-2.2c-0.8-0.7-1.9-1.3-3.1-1.8  c-1.2-0.5-2.7-0.7-4.4-0.7c-0.9,0-1.7,0.4-2.3,1.1c-0.6,0.7-0.9,1.6-0.9,2.5v9.1c0,0.4,0.2,0.5,0.5,0.5c0.1,0,0.2,0,0.3,0  c0.1,0,0.4,0,0.8,0c0.6,0,1,0,1.4-0.1c0.4-0.1,0.8-0.2,1.1-0.4s0.7-0.4,1.1-0.7c0.4-0.3,0.8-0.6,1.2-1c-0.1,0.5-0.2,0.9-0.3,1.2  c-0.1,0.3-0.2,0.5-0.3,0.8c-0.1,0.2-0.2,0.5-0.2,0.8c-0.1,0.3-0.1,0.7-0.2,1.1v1.7c0,0.2,0,0.5,0.1,0.9c0.1,0.3,0.2,0.7,0.3,1.1  c0.1,0.4,0.2,0.7,0.4,1c0.1,0.3,0.2,0.5,0.2,0.6c-0.7-0.4-1.3-0.8-1.7-1.1c-0.4-0.3-0.8-0.6-1.2-0.9c-0.4-0.2-0.7-0.4-1.1-0.6  c-0.4-0.1-0.9-0.2-1.6-0.2c-0.2,0-0.4,0-0.6,0.1c-0.2,0.1-0.3,0.3-0.3,0.6v11.7c0,1.2,0.3,2.3,0.9,3.5c0.6,1.2,1.3,2.4,2.1,3.7  c-0.7-0.1-1.4-0.2-2-0.4c-0.7-0.2-1.3-0.4-1.8-0.5h-4c-0.2,0-0.5,0-0.8,0.1c-0.3,0.1-0.5,0.1-0.6,0.1H6.1l-4,0.9  c0,0,0.1-0.3,0.4-0.9c0.3-0.5,0.6-1.2,0.9-1.9c0.3-0.7,0.6-1.5,0.9-2.2c0.3-0.8,0.4-1.4,0.4-2V9.3c0-0.2-0.1-0.7-0.3-1.3  C4.2,7.4,4,6.7,3.7,6.1C3.4,5.4,3.2,4.8,2.9,4.3c-0.2-0.6-0.4-0.9-0.5-1c0.2,0,0.5,0.1,1,0.2c0.4,0.1,0.9,0.2,1.5,0.3  C5.4,3.9,6,4,6.5,4.1C7,4.2,7.4,4.2,7.7,4.2c0.3,0,0.7,0,1.2-0.1C9.3,4,9.8,4,10.2,3.9c0.5-0.1,0.9-0.2,1.3-0.2  c0.4-0.1,0.8-0.1,1-0.2c0.6-0.1,1-0.2,1.4-0.2c0.3,0,0.6,0,0.7,0c1,0,2,0.1,3,0.3c1,0.2,2,0.3,3,0.5l3.2,0.2L28.8,3.2z"
   style="fill:currentColor" />
</svg>
