<svg width="505.501" height="81.601" viewBox="0 0 505.501 81.601" xmlns="http://www.w3.org/2000/svg"><g id="svgGroup" stroke-linecap="round" fill-rule="evenodd" font-size="9pt" stroke="#000" stroke-width="0.25mm" fill="#000" style="stroke:#000;stroke-width:0.25mm;fill:#000"><path d="M 134.001 72.201 L 133.001 72.201 Q 129.827 72.201 129.171 69.682 A 5.893 5.893 0 0 1 129.001 68.201 L 129.001 33.101 A 7.393 7.393 0 0 1 129.455 30.468 A 6.644 6.644 0 0 1 131.001 28.101 L 134.201 24.901 A 6.651 6.651 0 0 1 139.01 22.901 A 8.347 8.347 0 0 1 139.101 22.901 L 145.401 22.901 A 7.652 7.652 0 0 1 146.772 23.018 A 5.803 5.803 0 0 1 148.051 23.401 A 6.363 6.363 0 0 1 149.258 24.101 Q 149.769 24.473 150.268 24.968 A 10.493 10.493 0 0 1 150.301 25.001 Q 151.17 25.87 152.039 26.158 A 2.725 2.725 0 0 0 152.901 26.301 Q 153.812 26.301 154.722 25.546 A 5.471 5.471 0 0 0 155.101 25.201 L 155.301 25.001 Q 156.382 23.919 157.511 23.418 A 5.542 5.542 0 0 1 157.551 23.401 A 5.912 5.912 0 0 1 159.04 22.983 A 7.846 7.846 0 0 1 160.201 22.901 L 166.101 22.901 A 7.652 7.652 0 0 1 167.472 23.018 A 5.803 5.803 0 0 1 168.751 23.401 A 6.363 6.363 0 0 1 169.958 24.101 Q 170.469 24.473 170.968 24.968 A 10.493 10.493 0 0 1 171.001 25.001 L 174.201 28.201 A 6.651 6.651 0 0 1 176.2 33.01 A 8.347 8.347 0 0 1 176.201 33.101 L 176.201 68.201 Q 176.201 71.375 173.682 72.03 A 5.893 5.893 0 0 1 172.201 72.201 L 171.201 72.201 Q 168.027 72.201 167.371 69.682 A 5.893 5.893 0 0 1 167.201 68.201 L 167.201 36.001 Q 167.201 32.827 164.682 32.171 A 5.893 5.893 0 0 0 163.201 32.001 L 161.301 32.001 Q 158.127 32.001 157.471 34.519 A 5.893 5.893 0 0 0 157.301 36.001 L 157.301 68.201 Q 157.301 71.375 154.782 72.03 A 5.893 5.893 0 0 1 153.301 72.201 L 152.301 72.201 Q 149.127 72.201 148.471 69.682 A 5.893 5.893 0 0 1 148.301 68.201 L 148.301 36.001 Q 148.301 32.827 145.782 32.171 A 5.893 5.893 0 0 0 144.301 32.001 L 142.001 32.001 Q 138.827 32.001 138.171 34.519 A 5.893 5.893 0 0 0 138.001 36.001 L 138.001 68.201 Q 138.001 71.375 135.482 72.03 A 5.893 5.893 0 0 1 134.001 72.201 Z M 39.501 67.001 L 39.501 68.101 Q 39.501 71.275 36.982 71.93 A 5.893 5.893 0 0 1 35.501 72.101 L 10.101 72.101 A 6.488 6.488 0 0 1 5.334 70.138 A 7.889 7.889 0 0 1 5.201 70.001 L 2.001 66.801 A 6.651 6.651 0 0 1 0.001 61.991 A 8.347 8.347 0 0 1 0.001 61.901 L 0.001 4.301 Q 0.001 1.127 2.519 0.471 A 5.893 5.893 0 0 1 4.001 0.301 L 35.501 0.301 Q 38.675 0.301 39.33 2.819 A 5.893 5.893 0 0 1 39.501 4.301 L 39.501 5.401 Q 39.501 8.575 36.982 9.23 A 5.893 5.893 0 0 1 35.501 9.401 L 13.001 9.401 Q 9.827 9.401 9.171 11.919 A 5.893 5.893 0 0 0 9.001 13.401 L 9.001 26.801 Q 9.001 29.975 11.519 30.63 A 5.893 5.893 0 0 0 13.001 30.801 L 35.501 30.801 Q 38.675 30.801 39.33 33.319 A 5.893 5.893 0 0 1 39.501 34.801 L 39.501 35.901 Q 39.501 39.075 36.982 39.73 A 5.893 5.893 0 0 1 35.501 39.901 L 13.001 39.901 Q 9.827 39.901 9.171 42.419 A 5.893 5.893 0 0 0 9.001 43.901 L 9.001 59.001 Q 9.001 62.175 11.519 62.83 A 5.893 5.893 0 0 0 13.001 63.001 L 35.501 63.001 Q 38.675 63.001 39.33 65.519 A 5.893 5.893 0 0 1 39.501 67.001 Z M 314.201 0.301 L 340.801 0.301 A 6.488 6.488 0 0 1 345.567 2.263 A 7.889 7.889 0 0 1 345.701 2.401 L 348.901 5.601 A 6.651 6.651 0 0 1 350.9 10.41 A 8.347 8.347 0 0 1 350.901 10.501 L 350.901 31.001 Q 350.901 33.901 348.901 36.001 L 345.701 39.201 A 6.651 6.651 0 0 1 340.891 41.2 A 8.347 8.347 0 0 1 340.801 41.201 L 323.301 41.201 Q 320.127 41.201 319.471 43.719 A 5.893 5.893 0 0 0 319.301 45.201 L 319.301 59.201 Q 319.301 62.375 321.819 63.03 A 5.893 5.893 0 0 0 323.301 63.201 L 346.901 63.201 Q 350.075 63.201 350.73 65.719 A 5.893 5.893 0 0 1 350.901 67.201 L 350.901 68.301 Q 350.901 71.475 348.382 72.13 A 5.893 5.893 0 0 1 346.901 72.301 L 320.201 72.301 A 8.525 8.525 0 0 1 318.871 72.202 A 6.319 6.319 0 0 1 317.551 71.851 A 6.524 6.524 0 0 1 316.273 71.17 A 8.695 8.695 0 0 1 315.301 70.401 L 312.401 67.901 Q 310.201 65.801 310.201 62.901 L 310.201 42.101 A 7.652 7.652 0 0 1 310.318 40.73 A 5.803 5.803 0 0 1 310.701 39.451 A 6.363 6.363 0 0 1 311.401 38.243 Q 311.773 37.733 312.268 37.233 A 10.493 10.493 0 0 1 312.301 37.201 L 315.401 34.101 A 6.651 6.651 0 0 1 320.21 32.101 A 8.347 8.347 0 0 1 320.301 32.101 L 337.901 32.101 Q 341.075 32.101 341.73 29.582 A 5.893 5.893 0 0 0 341.901 28.101 L 341.901 13.401 Q 341.901 10.227 339.382 9.571 A 5.893 5.893 0 0 0 337.901 9.401 L 314.201 9.401 Q 311.027 9.401 310.371 6.882 A 5.893 5.893 0 0 1 310.201 5.401 L 310.201 4.301 Q 310.201 1.127 312.719 0.471 A 5.893 5.893 0 0 1 314.201 0.301 Z M 450.101 72.301 L 445.901 72.301 Q 442.601 72.301 441.301 69.201 L 434.901 54.001 A 7.018 7.018 0 0 0 434.402 52.981 Q 434.102 52.484 433.755 52.153 A 2.196 2.196 0 0 0 432.201 51.501 A 2.216 2.216 0 0 0 430.592 52.206 Q 429.969 52.829 429.501 54.001 L 423.201 69.201 Q 422.624 70.519 421.775 71.261 A 3.96 3.96 0 0 1 421.401 71.551 A 4.123 4.123 0 0 1 420.018 72.147 Q 419.454 72.281 418.797 72.298 A 7.473 7.473 0 0 1 418.601 72.301 L 414.701 72.301 Q 411.527 72.301 410.871 69.782 A 5.893 5.893 0 0 1 410.701 68.301 L 410.701 67.201 Q 410.701 65.301 411.451 64.251 Q 412.201 63.201 413.501 63.201 A 3.79 3.79 0 0 0 416.659 61.599 Q 417.105 61.012 417.454 60.209 A 8.915 8.915 0 0 0 417.501 60.101 L 426.301 38.901 A 9.757 9.757 0 0 0 426.678 37.774 Q 426.831 37.195 426.879 36.669 A 5.17 5.17 0 0 0 426.901 36.201 Q 426.901 34.801 426.301 33.501 L 417.501 12.201 Q 416.656 10.186 415.219 9.48 A 3.846 3.846 0 0 0 413.501 9.101 A 2.717 2.717 0 0 1 412.124 8.771 Q 411.027 8.14 410.775 6.301 A 8.897 8.897 0 0 1 410.701 5.101 L 410.701 4.001 Q 410.701 0.827 413.219 0.171 A 5.893 5.893 0 0 1 414.701 0.001 L 418.601 0.001 A 6.333 6.333 0 0 1 419.814 0.111 Q 420.552 0.254 421.138 0.587 A 3.748 3.748 0 0 1 421.401 0.751 Q 422.501 1.501 423.201 3.101 L 429.501 18.401 A 7.811 7.811 0 0 0 430.025 19.405 Q 430.734 20.535 431.614 20.811 A 1.949 1.949 0 0 0 432.201 20.901 A 2.098 2.098 0 0 0 433.601 20.342 Q 434.321 19.719 434.901 18.401 L 441.301 3.101 A 5.703 5.703 0 0 1 442.308 1.466 Q 443.446 0.207 445.281 0.03 A 6.45 6.45 0 0 1 445.901 0.001 L 450.101 0.001 Q 453.275 0.001 453.93 2.519 A 5.893 5.893 0 0 1 454.101 4.001 L 454.101 5.101 Q 454.101 7.001 453.351 8.051 A 2.41 2.41 0 0 1 451.592 9.079 A 3.388 3.388 0 0 1 451.201 9.101 A 4.135 4.135 0 0 0 448.867 9.759 Q 448.102 10.265 447.537 11.158 A 7.051 7.051 0 0 0 447.001 12.201 L 438.101 33.501 Q 437.501 34.801 437.501 36.201 A 5.731 5.731 0 0 0 437.615 37.308 Q 437.763 38.057 438.101 38.901 L 447.001 60.101 Q 448.301 63.201 451.201 63.201 A 2.971 2.971 0 0 1 452.141 63.342 A 2.384 2.384 0 0 1 453.351 64.251 A 3.598 3.598 0 0 1 453.857 65.31 Q 454.101 66.117 454.101 67.201 L 454.101 68.301 Q 454.101 71.475 451.582 72.13 A 5.893 5.893 0 0 1 450.101 72.301 Z M 501.501 72.301 L 497.301 72.301 Q 494.001 72.301 492.701 69.201 L 486.301 54.001 A 7.018 7.018 0 0 0 485.802 52.981 Q 485.502 52.484 485.155 52.153 A 2.196 2.196 0 0 0 483.601 51.501 A 2.216 2.216 0 0 0 481.992 52.206 Q 481.369 52.829 480.901 54.001 L 474.601 69.201 Q 474.024 70.519 473.175 71.261 A 3.96 3.96 0 0 1 472.801 71.551 A 4.123 4.123 0 0 1 471.418 72.147 Q 470.854 72.281 470.197 72.298 A 7.473 7.473 0 0 1 470.001 72.301 L 466.101 72.301 Q 462.927 72.301 462.271 69.782 A 5.893 5.893 0 0 1 462.101 68.301 L 462.101 67.201 Q 462.101 65.301 462.851 64.251 Q 463.601 63.201 464.901 63.201 A 3.79 3.79 0 0 0 468.059 61.599 Q 468.505 61.012 468.854 60.209 A 8.915 8.915 0 0 0 468.901 60.101 L 477.701 38.901 A 9.757 9.757 0 0 0 478.078 37.774 Q 478.231 37.195 478.279 36.669 A 5.17 5.17 0 0 0 478.301 36.201 Q 478.301 34.801 477.701 33.501 L 468.901 12.201 Q 468.056 10.186 466.619 9.48 A 3.846 3.846 0 0 0 464.901 9.101 A 2.717 2.717 0 0 1 463.524 8.771 Q 462.427 8.14 462.175 6.301 A 8.897 8.897 0 0 1 462.101 5.101 L 462.101 4.001 Q 462.101 0.827 464.619 0.171 A 5.893 5.893 0 0 1 466.101 0.001 L 470.001 0.001 A 6.333 6.333 0 0 1 471.214 0.111 Q 471.952 0.254 472.538 0.587 A 3.748 3.748 0 0 1 472.801 0.751 Q 473.901 1.501 474.601 3.101 L 480.901 18.401 A 7.811 7.811 0 0 0 481.425 19.405 Q 482.134 20.535 483.014 20.811 A 1.949 1.949 0 0 0 483.601 20.901 A 2.098 2.098 0 0 0 485.001 20.342 Q 485.721 19.719 486.301 18.401 L 492.701 3.101 A 5.703 5.703 0 0 1 493.708 1.466 Q 494.846 0.207 496.681 0.03 A 6.45 6.45 0 0 1 497.301 0.001 L 501.501 0.001 Q 504.675 0.001 505.33 2.519 A 5.893 5.893 0 0 1 505.501 4.001 L 505.501 5.101 Q 505.501 7.001 504.751 8.051 A 2.41 2.41 0 0 1 502.992 9.079 A 3.388 3.388 0 0 1 502.601 9.101 A 4.135 4.135 0 0 0 500.267 9.759 Q 499.502 10.265 498.937 11.158 A 7.051 7.051 0 0 0 498.401 12.201 L 489.501 33.501 Q 488.901 34.801 488.901 36.201 A 5.731 5.731 0 0 0 489.015 37.308 Q 489.163 38.057 489.501 38.901 L 498.401 60.101 Q 499.701 63.201 502.601 63.201 A 2.971 2.971 0 0 1 503.541 63.342 A 2.384 2.384 0 0 1 504.751 64.251 A 3.598 3.598 0 0 1 505.257 65.31 Q 505.501 66.117 505.501 67.201 L 505.501 68.301 Q 505.501 71.475 502.982 72.13 A 5.893 5.893 0 0 1 501.501 72.301 Z M 371.101 0.301 L 391.601 0.301 A 6.488 6.488 0 0 1 396.367 2.263 A 7.889 7.889 0 0 1 396.501 2.401 L 399.701 5.601 A 6.651 6.651 0 0 1 401.7 10.41 A 8.347 8.347 0 0 1 401.701 10.501 L 401.701 62.301 A 7.652 7.652 0 0 1 401.583 63.672 A 5.803 5.803 0 0 1 401.201 64.951 A 6.363 6.363 0 0 1 400.5 66.158 Q 400.128 66.669 399.633 67.168 A 10.493 10.493 0 0 1 399.601 67.201 L 396.401 70.401 A 6.651 6.651 0 0 1 391.591 72.4 A 8.347 8.347 0 0 1 391.501 72.401 L 371.001 72.401 A 6.925 6.925 0 0 1 368.06 71.785 A 6.795 6.795 0 0 1 366.101 70.401 L 362.901 67.201 A 6.651 6.651 0 0 1 360.901 62.391 A 8.347 8.347 0 0 1 360.901 62.301 L 360.901 10.401 A 6.925 6.925 0 0 1 361.516 7.46 A 6.795 6.795 0 0 1 362.901 5.501 L 366.101 2.301 A 6.747 6.747 0 0 1 370.908 0.303 A 8.857 8.857 0 0 1 371.101 0.301 Z M 47.601 22.901 L 49.001 22.901 Q 52.025 22.901 53.454 25.337 A 6.522 6.522 0 0 1 53.701 25.801 L 58.501 35.801 Q 59.601 38.101 61.201 38.101 Q 62.788 38.101 63.982 35.836 A 9.411 9.411 0 0 0 64.001 35.801 L 69.101 25.801 A 5.837 5.837 0 0 1 70.333 24.15 Q 71.701 22.901 73.801 22.901 L 74.801 22.901 Q 78.201 22.901 78.201 25.401 Q 78.201 26.267 77.75 27.283 A 7.529 7.529 0 0 1 77.601 27.601 L 68.201 45.701 Q 67.65 46.803 67.478 47.715 A 4.257 4.257 0 0 0 67.401 48.501 Q 67.401 49.406 67.975 50.804 A 14.217 14.217 0 0 0 68.101 51.101 L 76.701 68.601 Q 77.301 69.801 77.301 70.801 A 2.876 2.876 0 0 1 77.202 71.576 A 2.067 2.067 0 0 1 76.501 72.651 Q 75.811 73.211 74.677 73.288 A 5.519 5.519 0 0 1 74.301 73.301 L 72.901 73.301 Q 69.876 73.301 68.448 70.865 A 6.522 6.522 0 0 1 68.201 70.401 L 63.601 61.101 Q 62.501 58.801 60.901 58.801 Q 59.313 58.801 58.119 61.065 A 9.411 9.411 0 0 0 58.101 61.101 L 53.301 70.401 A 5.406 5.406 0 0 1 52.057 72.103 Q 50.721 73.301 48.601 73.301 L 48.101 73.301 A 5.949 5.949 0 0 1 47.077 73.218 Q 46.174 73.06 45.551 72.601 Q 44.63 71.922 44.602 70.775 A 2.974 2.974 0 0 1 44.601 70.701 Q 44.601 69.801 45.201 68.601 L 54.001 51.301 Q 54.552 50.199 54.723 49.286 A 4.257 4.257 0 0 0 54.801 48.501 A 4.791 4.791 0 0 0 54.631 47.271 Q 54.456 46.612 54.101 45.901 L 45.101 27.601 Q 44.501 26.401 44.501 25.501 A 2.899 2.899 0 0 1 44.618 24.655 A 2.241 2.241 0 0 1 45.301 23.601 Q 45.959 23.025 47.091 22.923 A 5.68 5.68 0 0 1 47.601 22.901 Z M 89.501 70.201 L 86.201 66.901 A 6.651 6.651 0 0 1 84.201 62.091 A 8.347 8.347 0 0 1 84.201 62.001 L 84.201 50.401 A 7.652 7.652 0 0 1 84.318 49.03 A 5.803 5.803 0 0 1 84.701 47.751 A 6.363 6.363 0 0 1 85.401 46.543 Q 85.773 46.033 86.268 45.533 A 10.493 10.493 0 0 1 86.301 45.501 L 89.501 42.301 A 6.651 6.651 0 0 1 94.31 40.301 A 8.347 8.347 0 0 1 94.401 40.301 L 103.901 40.301 Q 107.075 40.301 107.73 37.782 A 5.893 5.893 0 0 0 107.901 36.301 L 107.901 36.001 Q 107.901 32.827 105.382 32.171 A 5.893 5.893 0 0 0 103.901 32.001 L 88.501 32.001 Q 85.327 32.001 84.671 29.482 A 5.893 5.893 0 0 1 84.501 28.001 L 84.501 26.901 Q 84.501 23.727 87.019 23.071 A 5.893 5.893 0 0 1 88.501 22.901 L 106.801 22.901 A 6.925 6.925 0 0 1 109.741 23.516 A 6.795 6.795 0 0 1 111.701 24.901 L 115.001 28.201 A 6.651 6.651 0 0 1 117 33.01 A 8.347 8.347 0 0 1 117.001 33.101 L 117.001 68.201 Q 117.001 71.375 114.482 72.03 A 5.893 5.893 0 0 1 113.001 72.201 L 94.401 72.201 A 6.925 6.925 0 0 1 91.46 71.585 A 6.795 6.795 0 0 1 89.501 70.201 Z M 278.201 53.701 L 262.801 53.701 Q 259.627 53.701 258.971 56.219 A 5.893 5.893 0 0 0 258.801 57.701 L 258.801 59.101 Q 258.801 62.275 261.319 62.93 A 5.893 5.893 0 0 0 262.801 63.101 L 278.201 63.101 Q 281.375 63.101 282.03 65.619 A 5.893 5.893 0 0 1 282.201 67.101 L 282.201 68.201 Q 282.201 71.375 279.682 72.03 A 5.893 5.893 0 0 1 278.201 72.201 L 259.801 72.201 A 6.488 6.488 0 0 1 255.034 70.238 A 7.889 7.889 0 0 1 254.901 70.101 L 251.701 66.901 A 6.651 6.651 0 0 1 249.701 62.091 A 8.347 8.347 0 0 1 249.701 62.001 L 249.701 33.001 A 6.925 6.925 0 0 1 250.316 30.06 A 6.795 6.795 0 0 1 251.701 28.101 L 254.901 24.901 A 6.651 6.651 0 0 1 259.71 22.901 A 8.347 8.347 0 0 1 259.801 22.901 L 272.101 22.901 A 6.925 6.925 0 0 1 275.041 23.516 A 6.795 6.795 0 0 1 277.001 24.901 L 280.201 28.101 A 6.651 6.651 0 0 1 282.2 32.91 A 8.347 8.347 0 0 1 282.201 33.001 L 282.201 49.701 Q 282.201 52.875 279.682 53.53 A 5.893 5.893 0 0 1 278.201 53.701 Z M 188.201 77.601 L 188.201 26.901 Q 188.201 23.727 190.719 23.071 A 5.893 5.893 0 0 1 192.201 22.901 L 210.601 22.901 A 6.925 6.925 0 0 1 213.541 23.516 A 6.795 6.795 0 0 1 215.501 24.901 L 218.701 28.101 A 6.651 6.651 0 0 1 220.7 32.91 A 8.347 8.347 0 0 1 220.701 33.001 L 220.701 51.701 Q 220.701 54.601 218.701 56.701 L 215.501 59.901 A 6.651 6.651 0 0 1 210.691 61.9 A 8.347 8.347 0 0 1 210.601 61.901 L 201.301 61.901 Q 198.127 61.901 197.471 64.419 A 5.893 5.893 0 0 0 197.301 65.901 L 197.301 77.601 Q 197.301 80.775 194.782 81.43 A 5.893 5.893 0 0 1 193.301 81.601 L 192.201 81.601 Q 189.027 81.601 188.371 79.082 A 5.893 5.893 0 0 1 188.201 77.601 Z M 234.701 0.401 L 235.701 0.401 Q 238.875 0.401 239.53 2.919 A 5.893 5.893 0 0 1 239.701 4.401 L 239.701 68.301 Q 239.701 71.475 237.182 72.13 A 5.893 5.893 0 0 1 235.701 72.301 L 234.701 72.301 Q 231.527 72.301 230.871 69.782 A 5.893 5.893 0 0 1 230.701 68.301 L 230.701 4.401 Q 230.701 1.227 233.219 0.571 A 5.893 5.893 0 0 1 234.701 0.401 Z M 392.601 59.401 L 392.601 13.401 Q 392.601 10.227 390.082 9.571 A 5.893 5.893 0 0 0 388.601 9.401 L 374.001 9.401 Q 370.827 9.401 370.171 11.919 A 5.893 5.893 0 0 0 370.001 13.401 L 370.001 59.401 Q 370.001 62.575 372.519 63.23 A 5.893 5.893 0 0 0 374.001 63.401 L 388.601 63.401 Q 391.775 63.401 392.43 60.882 A 5.893 5.893 0 0 0 392.601 59.401 Z M 197.301 35.901 L 197.301 48.801 Q 197.301 51.975 199.819 52.63 A 5.893 5.893 0 0 0 201.301 52.801 L 207.701 52.801 Q 210.875 52.801 211.53 50.282 A 5.893 5.893 0 0 0 211.701 48.801 L 211.701 35.901 Q 211.701 32.727 209.182 32.071 A 5.893 5.893 0 0 0 207.701 31.901 L 201.301 31.901 Q 198.127 31.901 197.471 34.419 A 5.893 5.893 0 0 0 197.301 35.901 Z M 103.901 48.501 L 97.301 48.501 Q 94.127 48.501 93.471 51.019 A 5.893 5.893 0 0 0 93.301 52.501 L 93.301 60.001 Q 93.301 63.175 95.819 63.83 A 5.893 5.893 0 0 0 97.301 64.001 L 103.901 64.001 Q 107.075 64.001 107.73 61.482 A 5.893 5.893 0 0 0 107.901 60.001 L 107.901 52.501 Q 107.901 49.327 105.382 48.671 A 5.893 5.893 0 0 0 103.901 48.501 Z M 262.801 45.701 L 269.101 45.701 Q 272.275 45.701 272.93 43.182 A 5.893 5.893 0 0 0 273.101 41.701 L 273.101 35.901 Q 273.101 32.727 270.582 32.071 A 5.893 5.893 0 0 0 269.101 31.901 L 262.801 31.901 Q 259.627 31.901 258.971 34.419 A 5.893 5.893 0 0 0 258.801 35.901 L 258.801 41.701 Q 258.801 44.875 261.319 45.53 A 5.893 5.893 0 0 0 262.801 45.701 Z" vector-effect="non-scaling-stroke"/></g></svg>
