<?xml version="1.0" encoding="utf-8"?>
<!-- Generator: Adobe Illustrator 23.0.3, SVG Export Plug-In . SVG Version: 6.00 Build 0)  -->
<svg version="1.1" id="Vrstva_1" xmlns="http://www.w3.org/2000/svg" xmlns:xlink="http://www.w3.org/1999/xlink" x="0px" y="0px"
	 viewBox="0 0 283.5 141.7" style="enable-background:new 0 0 283.5 141.7;" xml:space="preserve">
<style type="text/css">
	.st0{fill:#231F20;}
	.st1{fill:none;stroke:#231F20;stroke-width:0.333;}
</style>
<!-- <path class="st0" d="M229.8,116.7l0.3-0.4h-6.9l0.6,0.4c1.5,0,2.4,0.1,2.7,0.4l-5.8,7.9l-6.9-9.6c0.1-0.3,0.8-0.4,2.3-0.4l0.5-0.5
	c-3.1,0.1-6,0.1-8.7-0.2l0.2,0.5c1.6,0,2.6,0.3,2.9,1l0.7,0.9l6.4,9.1v4.9c-0.2,0.2-0.9,0.3-2.2,0.4l-0.1,0.4h7.8l-0.2-0.4
	c-1.1,0-1.9-0.2-2.3-0.6l-0.1-3.9l0.7-1.6l5.8-7.8C227.8,116.8,228.6,116.7,229.8,116.7 M197.4,118.6c1.2-0.1,1.9,0.2,2.1,0.8v10.8
	c-0.4,0.8-1.3,1.2-2.7,1.1l-0.2,0.4h7.8l-0.2-0.4c-1.4,0.1-2.2-0.3-2.3-1.1v-10.9c0.1-0.5,0.4-0.7,1.2-0.6c3.8-0.1,6,1,6.6,3.4
	c0.5,2.4-1.1,4.1-4.8,5.2c-0.5,0.2-0.5,0.5,0.1,0.9l2.4,4.6c-0.2,0.2-0.9,0.4-2,0.5l-0.3,0.4h6.7l-0.2-0.4c-1,0-1.6-0.1-1.8-0.4
	l-3.2-5.2c3.2-0.8,5-2.3,5.5-4.7c0.5-2.4-1-3.9-4.5-4.8c-4.7,0.2-8.2,0.2-10.6-0.1L197.4,118.6z M193.6,124.8c0.1-4.3-2-6.3-8.8-5.9
	c-0.2,0.1-0.3,0.3-0.3,0.7v9.8c-0.2,1,0,1.5,0.4,1.6C191.5,131.2,193.5,129.1,193.6,124.8 M195.3,122.3c0.9,3,0.5,5.2-1.5,6.8
	c-1.9,1.6-4.6,2.4-8.2,2.5h-5.8l0.1-0.3c1.5-0.2,2.3-0.6,2.6-1.1l0.1-11c-0.4-0.4-1.2-0.6-2.6-0.8l-0.2-0.3h4.9
	C190.8,118,194.3,119.4,195.3,122.3 M164.1,118.6c1.2-0.1,1.9,0.2,2.1,0.8v10.8c-0.4,0.8-1.3,1.2-2.7,1.1l-0.2,0.4h7.8l-0.2-0.4
	c-1.4,0.1-2.2-0.3-2.3-1.1v-10.9c0.1-0.5,0.4-0.7,1.2-0.6c3.8-0.1,6,1,6.6,3.4c0.5,2.4-1.1,4.1-4.8,5.2c-0.5,0.2-0.5,0.5,0.1,0.9
	l2.4,4.6c-0.2,0.2-0.9,0.4-2,0.5l-0.3,0.4h6.7l-0.2-0.4c-1,0-1.6-0.1-1.8-0.4l-3.2-5.2c3.2-0.8,5-2.3,5.5-4.7c0.5-2.4-1-3.9-4.5-4.8
	c-4.7,0.2-8.2,0.2-10.6-0.1L164.1,118.6z M153.7,125.7l2.1-5.7c0.2-0.3,0.4-0.4,0.5-0.4l1.9,6.5C157.8,126.1,156.3,126,153.7,125.7
	 M154.3,131.4l-0.1-0.5c-1,0-1.7-0.1-2.1-0.4l1.2-3.6c3-0.2,4.7-0.3,5.2-0.2l1.9,6.3c-0.2,0.4-0.8,0.5-1.8,0.4l-0.4,0.4
	c2.1,0.1,4.2,0.1,6.5,0l0.1-0.4c-0.9-0.1-1.7-0.1-2.2-0.3l-4.3-13.6c0.1-0.7,0.8-1,2.2-0.8l0.2-0.4H153l0.1,0.4
	c1.4-0.2,2.1-0.1,2.2,0.5l-4.3,11c-0.3,0.4-1,0.7-2,0.8l0.1,0.3H154.3z M147.8,116.4l-13.2,0.4c-0.6,0.3-0.9-0.3-0.9-1.8l-0.4-0.1
	l-0.5,5.6h0.5c-0.1-1.3,0.5-2.2,1.7-2.8l10.4-0.6l-13.7,14.3c0,0.2,0.1,0.4,0.4,0.6l12.8-0.6c0.8-0.1,1.2,0.7,1.2,2.2l0.4,0.3
	l1.2-6.6l-0.6,0.4c-0.6,1.6-1.3,2.6-2,3l-9.7,0.4l12.2-12.1l2.3-2.2l-0.2-0.5L147.8,116.4z M123.5,118.4c1.2-0.1,1.9,0.2,2.1,0.8
	V130c-0.4,0.6-1.3,1-2.7,1.1l-0.2,0.4h7.8l-0.3-0.5c-1.2,0.1-1.9-0.2-2.2-0.9v-10.9c0.1-0.5,0.8-0.7,2.3-0.7l0.1-0.5
	c-2.5,0.2-4.9,0.2-7.3-0.1L123.5,118.4z M112.5,131.3c0.6,1.1,1.2,1.1,1.7,0l6.1-12.3c0.3-0.4,0.9-0.7,1.8-0.8l0.3-0.4l-5-0.1
	l0.2,0.4c1.3-0.1,1.9,0.1,1.9,0.7l-5.6,10.9l-5.6-12.8c0.2-0.4,0.8-0.6,1.9-0.7v-0.4h-7.3l0.1,0.5c1.9-0.1,3.1,0.1,3.6,0.6l0.2,0.8
	l-0.7,2.6l-2.8,9.2l-4.1-10.7c-0.1-0.5,0.4-0.7,1.6-0.7l0.2-0.4h-6.9l0.3,0.4c1.5-0.1,2.3,0.3,2.4,0.9l0.2,0.4l4.9,11.7
	c0.5,1.1,0.9,1.1,1.4,0l3.7-12L112.5,131.3z M80,124.8c0.1-4.3-2-6.3-8.8-5.9c-0.2,0.1-0.3,0.3-0.3,0.7v9.8c-0.2,1,0,1.5,0.4,1.6
	C77.9,131.2,79.9,129.1,80,124.8 M81.6,122.3c0.9,3,0.5,5.2-1.5,6.8c-1.9,1.6-4.6,2.4-8.2,2.5h-5.8l0.1-0.3c1.5-0.2,2.3-0.6,2.6-1.1
	l0.1-11c-0.4-0.4-1.2-0.6-2.6-0.8l-0.2-0.3H71C77.1,118,80.7,119.4,81.6,122.3 M49.2,119l-0.3,11.2c-0.1,0.5-0.6,0.9-1.4,1l-0.4,0.3
	h5.8l-0.4-0.3c-1.3-0.1-2.1-0.2-2.3-0.5l-0.4-11.5L63,134.9c0.2,0,0.4-0.1,0.6-0.4l-0.7-13.1c0-0.5,0.8-0.7,2.3-0.7l0.3-0.4h-7.3
	l0.5,0.4c1.7-0.1,2.7,0.2,3.1,0.8l0.4,8.9l-10.2-12.2l-5.8-0.2l0.4,0.4C48.1,118.4,48.9,118.6,49.2,119 M37.1,125.7l2.1-5.7
	c0.2-0.3,0.4-0.4,0.5-0.4l1.9,6.5C41.1,126.1,39.6,126,37.1,125.7 M37.7,131.4l-0.1-0.5c-1,0-1.7-0.1-2.1-0.4l1.2-3.6
	c3-0.2,4.7-0.3,5.2-0.2l1.9,6.3c-0.2,0.4-0.8,0.5-1.8,0.4l-0.4,0.4c2.1,0.1,4.2,0.1,6.5,0l0.1-0.4c-0.9-0.1-1.7-0.1-2.2-0.3
	l-4.3-13.6c0.1-0.7,0.8-1,2.2-0.8l0.2-0.4h-7.7l0.1,0.4c1.4-0.2,2.1-0.1,2.2,0.5l-4.3,11c-0.3,0.4-1,0.7-2,0.8l0.1,0.3H37.7z"/>
<path class="st1" d="M229.8,116.7l0.3-0.4h-6.9l0.6,0.4c1.5,0,2.4,0.1,2.7,0.4l-5.8,7.9l-6.9-9.6c0.1-0.3,0.8-0.4,2.3-0.4l0.5-0.5
	c-3.1,0.1-6,0.1-8.7-0.2l0.2,0.5c1.6,0,2.6,0.3,2.9,1l0.7,0.9l6.4,9.1v4.9c-0.2,0.2-0.9,0.3-2.2,0.4l-0.1,0.4h7.8l-0.2-0.4
	c-1.1,0-1.9-0.2-2.3-0.6l-0.1-3.9l0.7-1.6l5.8-7.8C227.8,116.8,228.6,116.7,229.8,116.7z M197.4,118.6c1.2-0.1,1.9,0.2,2.1,0.8v10.8
	c-0.4,0.8-1.3,1.2-2.7,1.1l-0.2,0.4h7.8l-0.2-0.4c-1.4,0.1-2.2-0.3-2.3-1.1v-10.9c0.1-0.5,0.4-0.7,1.2-0.6c3.8-0.1,6,1,6.6,3.4
	c0.5,2.4-1.1,4.1-4.8,5.2c-0.5,0.2-0.5,0.5,0.1,0.9l2.4,4.6c-0.2,0.2-0.9,0.4-2,0.5l-0.3,0.4h6.7l-0.2-0.4c-1,0-1.6-0.1-1.8-0.4
	l-3.2-5.2c3.2-0.8,5-2.3,5.5-4.7c0.5-2.4-1-3.9-4.5-4.8c-4.7,0.2-8.2,0.2-10.6-0.1L197.4,118.6z M193.6,124.8c0.1-4.3-2-6.3-8.8-5.9
	c-0.2,0.1-0.3,0.3-0.3,0.7v9.8c-0.2,1,0,1.5,0.4,1.6C191.5,131.2,193.5,129.1,193.6,124.8z M195.3,122.3c0.9,3,0.5,5.2-1.5,6.8
	c-1.9,1.6-4.6,2.4-8.2,2.5h-5.8l0.1-0.3c1.5-0.2,2.3-0.6,2.6-1.1l0.1-11c-0.4-0.4-1.2-0.6-2.6-0.8l-0.2-0.3h4.9
	C190.8,118,194.3,119.4,195.3,122.3z M164.1,118.6c1.2-0.1,1.9,0.2,2.1,0.8v10.8c-0.4,0.8-1.3,1.2-2.7,1.1l-0.2,0.4h7.8l-0.2-0.4
	c-1.4,0.1-2.2-0.3-2.3-1.1v-10.9c0.1-0.5,0.4-0.7,1.2-0.6c3.8-0.1,6,1,6.6,3.4c0.5,2.4-1.1,4.1-4.8,5.2c-0.5,0.2-0.5,0.5,0.1,0.9
	l2.4,4.6c-0.2,0.2-0.9,0.4-2,0.5l-0.3,0.4h6.7l-0.2-0.4c-1,0-1.6-0.1-1.8-0.4l-3.2-5.2c3.2-0.8,5-2.3,5.5-4.7c0.5-2.4-1-3.9-4.5-4.8
	c-4.7,0.2-8.2,0.2-10.6-0.1L164.1,118.6z M153.7,125.7l2.1-5.7c0.2-0.3,0.4-0.4,0.5-0.4l1.9,6.5C157.8,126.1,156.3,126,153.7,125.7z
	 M154.3,131.4l-0.1-0.5c-1,0-1.7-0.1-2.1-0.4l1.2-3.6c3-0.2,4.7-0.3,5.2-0.2l1.9,6.3c-0.2,0.4-0.8,0.5-1.8,0.4l-0.4,0.4
	c2.1,0.1,4.2,0.1,6.5,0l0.1-0.4c-0.9-0.1-1.7-0.1-2.2-0.3l-4.3-13.6c0.1-0.7,0.8-1,2.2-0.8l0.2-0.4H153l0.1,0.4
	c1.4-0.2,2.1-0.1,2.2,0.5l-4.3,11c-0.3,0.4-1,0.7-2,0.8l0.1,0.3H154.3z M147.8,116.4l-13.2,0.4c-0.6,0.3-0.9-0.3-0.9-1.8l-0.4-0.1
	l-0.5,5.6h0.5c-0.1-1.3,0.5-2.2,1.7-2.8l10.4-0.6l-13.7,14.3c0,0.2,0.1,0.4,0.4,0.6l12.8-0.6c0.8-0.1,1.2,0.7,1.2,2.2l0.4,0.3
	l1.2-6.6l-0.6,0.4c-0.6,1.6-1.3,2.6-2,3l-9.7,0.4l12.2-12.1l2.3-2.2l-0.2-0.5L147.8,116.4z M123.5,118.4c1.2-0.1,1.9,0.2,2.1,0.8
	V130c-0.4,0.6-1.3,1-2.7,1.1l-0.2,0.4h7.8l-0.3-0.5c-1.2,0.1-1.9-0.2-2.2-0.9v-10.9c0.1-0.5,0.8-0.7,2.3-0.7l0.1-0.5
	c-2.5,0.2-4.9,0.2-7.3-0.1L123.5,118.4z M112.5,131.3c0.6,1.1,1.2,1.1,1.7,0l6.1-12.3c0.3-0.4,0.9-0.7,1.8-0.8l0.3-0.4l-5-0.1
	l0.2,0.4c1.3-0.1,1.9,0.1,1.9,0.7l-5.6,10.9l-5.6-12.8c0.2-0.4,0.8-0.6,1.9-0.7v-0.4h-7.3l0.1,0.5c1.9-0.1,3.1,0.1,3.6,0.6l0.2,0.8
	l-0.7,2.6l-2.8,9.2l-4.1-10.7c-0.1-0.5,0.4-0.7,1.6-0.7l0.2-0.4h-6.9l0.3,0.4c1.5-0.1,2.3,0.3,2.4,0.9l0.2,0.4l4.9,11.7
	c0.5,1.1,0.9,1.1,1.4,0l3.7-12L112.5,131.3z M80,124.8c0.1-4.3-2-6.3-8.8-5.9c-0.2,0.1-0.3,0.3-0.3,0.7v9.8c-0.2,1,0,1.5,0.4,1.6
	C77.9,131.2,79.9,129.1,80,124.8z M81.6,122.3c0.9,3,0.5,5.2-1.5,6.8c-1.9,1.6-4.6,2.4-8.2,2.5h-5.8l0.1-0.3
	c1.5-0.2,2.3-0.6,2.6-1.1l0.1-11c-0.4-0.4-1.2-0.6-2.6-0.8l-0.2-0.3H71C77.1,118,80.7,119.4,81.6,122.3z M49.2,119l-0.3,11.2
	c-0.1,0.5-0.6,0.9-1.4,1l-0.4,0.3h5.8l-0.4-0.3c-1.3-0.1-2.1-0.2-2.3-0.5l-0.4-11.5L63,134.9c0.2,0,0.4-0.1,0.6-0.4l-0.7-13.1
	c0-0.5,0.8-0.7,2.3-0.7l0.3-0.4h-7.3l0.5,0.4c1.7-0.1,2.7,0.2,3.1,0.8l0.4,8.9l-10.2-12.2l-5.8-0.2l0.4,0.4
	C48.1,118.4,48.9,118.6,49.2,119z M37.1,125.7l2.1-5.7c0.2-0.3,0.4-0.4,0.5-0.4l1.9,6.5C41.1,126.1,39.6,126,37.1,125.7z
	 M37.7,131.4l-0.1-0.5c-1,0-1.7-0.1-2.1-0.4l1.2-3.6c3-0.2,4.7-0.3,5.2-0.2l1.9,6.3c-0.2,0.4-0.8,0.5-1.8,0.4l-0.4,0.4
	c2.1,0.1,4.2,0.1,6.5,0l0.1-0.4c-0.9-0.1-1.7-0.1-2.2-0.3l-4.3-13.6c0.1-0.7,0.8-1,2.2-0.8l0.2-0.4h-7.7l0.1,0.4
	c1.4-0.2,2.1-0.1,2.2,0.5l-4.3,11c-0.3,0.4-1,0.7-2,0.8l0.1,0.3H37.7z"/>
<path class="st0" d="M260.1,100.1l-0.6-0.6c-0.1-2.1-0.3-3.2-0.8-3.3c-1.9-1-3.7-0.7-5.4,0.8c-1.7,1.6-2,4-0.8,7.3
	c1.2,3.3,3.9,4.1,8.1,2.3c0.5-0.2,0.5,0,0.2,0.5c-5,2.1-8.4,1.7-10.3-1.2c-1.9-2.9-2-5.6-0.1-8c1.8-2.4,4.7-3.2,8.7-2.5l0.4-1.3
	l0.5-0.1C259.6,95.2,259.7,97.2,260.1,100.1 M240.6,95c1.2-0.1,1.9,0.2,2.1,0.8v10.8c-0.4,0.6-1.3,1-2.7,1.1l-0.2,0.4h7.8l-0.3-0.5
	c-1.2,0.1-1.9-0.2-2.2-0.9V95.7c0.1-0.5,0.8-0.7,2.3-0.7l0.1-0.5c-2.5,0.2-4.9,0.2-7.3-0.1L240.6,95z M238.8,99.1l-0.4-0.5
	c-0.2-1.2-0.7-1.9-1.3-2.3c-4-2.3-6.7-2.1-8.1,0.6c-1.4,2.7-1.7,5.2-0.6,7.4c1,2.2,3.4,3.3,7.2,3.2v-1.8c0-1.7-0.9-2.4-2.6-2
	l-0.4-0.7h5.8l-0.4,0.4c-1.1-0.1-1.7,0.2-1.9,0.9l0.1,4.1c-4-0.1-6.8-0.7-8.6-1.9c-1.8-1.1-2.5-3.2-2.2-6.3c0.4-3,2-4.9,5-5.6
	c3-0.7,5.4-0.2,7.4,1.3l0.5-1.9l0.4-0.4V99.1z M215.5,102.3l2.1-5.7c0.2-0.3,0.4-0.4,0.5-0.4l1.9,6.5
	C219.6,102.6,218,102.5,215.5,102.3 M216.1,108l-0.1-0.5c-1,0-1.7-0.1-2.1-0.4l1.2-3.6c3-0.2,4.7-0.3,5.2-0.2l1.9,6.2
	c-0.2,0.4-0.8,0.5-1.8,0.4l-0.4,0.4c2.1,0.1,4.2,0.1,6.5,0l0.1-0.4c-0.9-0.1-1.7-0.1-2.2-0.3l-4.3-13.5c0.1-0.7,0.8-1,2.2-0.8
	l0.2-0.4h-7.7l0.1,0.4c1.4-0.2,2.1-0.1,2.2,0.5l-4.3,11c-0.3,0.4-1,0.7-2,0.8l0.1,0.3H216.1z M188.8,108.1l-0.2-0.4
	c-1.4,0-2.2-0.3-2.5-0.8l2.5-10.9l7.8,13.5c0.3,0.3,0.6,0.3,0.9,0l6.2-14c0.2-0.2,0.4-0.1,0.5,0.4l1.5,11.3c-0.2,0.3-1,0.5-2.3,0.5
	v0.3h6.8l-0.1-0.4c-1,0.1-1.6-0.1-1.9-0.5l-1.7-12.1c0-0.4,0.9-0.6,2.7-0.5l0.4-0.4h-9.7l0.4,0.4c1.5-0.1,2.4,0,2.7,0.4l-5.5,11.8
	l-6.3-11.5c-0.1-0.5,0.6-0.7,2-0.7l0.2-0.4H185l0.4,0.4c1.6-0.1,2.4,0.2,2.5,0.7l-2.6,11.3c-0.2,0.7-0.9,1-2,1l-0.4,0.4H188.8z
	 M169.3,97.9c0.1-1.7-0.3-2.6-1.3-2.6l-5.1,0.1l0.1,5.7c0.3,0.4,0.9,0.5,1.9,0.3l0.3-1.4l0.4,0.2c-0.1,0.8-0.2,2.1-0.3,3.7l-0.4-0.4
	l-0.1-1.1c-0.2-0.2-0.9-0.2-1.9,0.2l-0.2,4c0,0.6,0.6,0.8,1.7,0.7l0.4,0.7h-6.1l0.1-0.4c1,0,1.5-0.3,1.6-0.8l0.1-10.6
	c-0.1-0.8-0.9-1.1-2.2-1.1l-0.3-0.4l10-0.1c0.9-0.1,1.4-0.8,1.3-2.1l0.4-0.3c-0.2,2.1-0.2,4.1,0,6.1L169.3,97.9z M154.2,97.8
	c1.3,2.2,1.3,4.5-0.1,7c-1.4,2.5-4.1,3.3-8.1,2.5c-4-0.9-5.9-3-5.8-6.4c0.1-3.4,2-5.5,5.8-6.2C150.2,94.5,152.9,95.6,154.2,97.8
	 M140,97.5c-1.6,1.8-2,4.1-1.1,6.6c0.9,2.6,3.3,3.9,7.1,4.1c3.9,0.1,6.7-0.5,8.4-2c1.7-1.5,2.8-3.2,3.3-5.1c0.4-2-0.4-3.7-2.4-5.2
	s-5.1-2.1-9.2-1.6C143.6,94.5,141.6,95.6,140,97.5 M116.4,95c1.2-0.1,1.9,0.2,2.1,0.8v10.8c-0.4,0.6-1.3,1-2.7,1.1l-0.2,0.4h8.8
	c0.4,0.3,0.5,1.1,0.4,2.6l0.5,0.4c-0.1-2.9,0.2-5.8,0.9-8.8h-0.6c-0.1,3-0.9,4.7-2.4,5.2c-1.2,0.2-1.9,0-2.2-0.7V95.7
	c0.1-0.5,0.8-0.7,2.3-0.7l0.1-0.5c-2.5,0.2-4.9,0.2-7.3-0.1L116.4,95z M111.7,97.8c1.3,2.2,1.3,4.5-0.1,7s-4.1,3.3-8.1,2.5
	c-4-0.9-5.9-3-5.8-6.4c0.1-3.4,2-5.5,5.8-6.2C107.7,94.5,110.4,95.6,111.7,97.8 M97.5,97.5c-1.6,1.8-2,4.1-1.1,6.6
	c0.9,2.6,3.3,3.9,7.1,4.1c3.9,0.1,6.7-0.5,8.4-2c1.7-1.5,2.8-3.2,3.3-5.1c0.4-2-0.4-3.7-2.4-5.2c-2-1.5-5.1-2.1-9.2-1.6
	C101.1,94.5,99.1,95.6,97.5,97.5 M91.1,97.8c1.3,2.2,1.3,4.5-0.1,7c-1.4,2.5-4.1,3.3-8.1,2.5c-4-0.9-5.9-3-5.8-6.4
	c0.1-3.4,2-5.5,5.8-6.2C87,94.5,89.7,95.6,91.1,97.8 M76.8,97.5c-1.6,1.8-2,4.1-1.1,6.6c0.9,2.6,3.3,3.9,7.1,4.1
	c3.9,0.1,6.7-0.5,8.4-2c1.7-1.5,2.8-3.2,3.3-5.1c0.4-2-0.4-3.7-2.4-5.2c-2-1.5-5.1-2.1-9.2-1.6C80.5,94.5,78.4,95.6,76.8,97.5
	 M58.1,95.1c0.9,0.1,1.5,0.4,1.8,1l0.1,11c-0.2,0.4-0.9,0.6-1.9,0.6l0.1,0.3l6,0.1v-0.4c-1.2-0.1-1.8-0.4-1.9-1l-0.1-5.7l7.9-0.2
	l0.5,0.3l0.2,6.2c-0.2,0.4-1.2,0.6-2.8,0.6l-0.1,0.4l8.1-0.1l-0.2-0.4c-1.4,0-2.2-0.2-2.6-0.5l-0.4-14.4c-0.1-0.5,0.7-0.7,2.4-0.7
	v-0.4h-8.3l0.3,0.4c2.1-0.1,3.2,0.1,3.2,0.6l0.3,7.1l-8.5-0.1v-3.9c-0.1-0.6,0.6-0.9,2.1-0.9l0.1-0.5h-6.6L58.1,95.1z M55.7,100.1
	l-0.6-0.6c-0.1-2.1-0.3-3.2-0.8-3.3c-1.9-1-3.7-0.7-5.4,0.8c-1.7,1.6-2,4-0.8,7.3c1.2,3.3,3.9,4.1,8.1,2.3c0.5-0.2,0.5,0,0.2,0.5
	c-5,2.1-8.4,1.7-10.3-1.2c-1.9-2.9-2-5.6-0.1-8c1.8-2.4,4.7-3.2,8.7-2.5l0.4-1.3l0.5-0.1C55.2,95.2,55.3,97.2,55.7,100.1 M41.5,91.9
	L41.2,92c-0.2,1.8-0.8,2.4-1.7,1.8c-3.4-0.1-5.3,1-5.7,3.3c-0.4,2.3,0.6,3.7,2.9,4.1s3.6,1.4,3.8,3c0.2,1.6-0.4,2.7-1.7,3.3
	c-1.4,0.6-2.6,0.4-3.6-0.4c-1.1-0.8-1.7-2.4-1.8-4.5l-0.4-0.3c0.3,2.6,0.3,5.2,0.1,7.7l0.4-0.4c0-1.7,0.2-2.6,0.6-2.6
	c0.8,1.2,2.5,1.6,4.9,1.3c2.4-0.3,3.6-1.8,3.7-4.4c0-2.6-1.3-4.2-4.1-4.7c-2.7-0.5-3.8-1.5-3.1-3.1c0.6-1.6,2.2-2.1,4.5-1.4
	c0.7,0.1,1.1,1.4,1.2,3.9l0.4,0.3C41,96.6,41.1,94.2,41.5,91.9"/>
<path class="st1" d="M260.1,100.1l-0.6-0.6c-0.1-2.1-0.3-3.2-0.8-3.3c-1.9-1-3.7-0.7-5.4,0.8c-1.7,1.6-2,4-0.8,7.3
	c1.2,3.3,3.9,4.1,8.1,2.3c0.5-0.2,0.5,0,0.2,0.5c-5,2.1-8.4,1.7-10.3-1.2c-1.9-2.9-2-5.6-0.1-8c1.8-2.4,4.7-3.2,8.7-2.5l0.4-1.3
	l0.5-0.1C259.6,95.2,259.7,97.2,260.1,100.1z M240.6,95c1.2-0.1,1.9,0.2,2.1,0.8v10.8c-0.4,0.6-1.3,1-2.7,1.1l-0.2,0.4h7.8l-0.3-0.5
	c-1.2,0.1-1.9-0.2-2.2-0.9V95.7c0.1-0.5,0.8-0.7,2.3-0.7l0.1-0.5c-2.5,0.2-4.9,0.2-7.3-0.1L240.6,95z M238.8,99.1l-0.4-0.5
	c-0.2-1.2-0.7-1.9-1.3-2.3c-4-2.3-6.7-2.1-8.1,0.6c-1.4,2.7-1.7,5.2-0.6,7.4c1,2.2,3.4,3.3,7.2,3.2v-1.8c0-1.7-0.9-2.4-2.6-2
	l-0.4-0.7h5.8l-0.4,0.4c-1.1-0.1-1.7,0.2-1.9,0.9l0.1,4.1c-4-0.1-6.8-0.7-8.6-1.9c-1.8-1.1-2.5-3.2-2.2-6.3c0.4-3,2-4.9,5-5.6
	c3-0.7,5.4-0.2,7.4,1.3l0.5-1.9l0.4-0.4V99.1z M215.5,102.3l2.1-5.7c0.2-0.3,0.4-0.4,0.5-0.4l1.9,6.5
	C219.6,102.6,218,102.5,215.5,102.3z M216.1,108l-0.1-0.5c-1,0-1.7-0.1-2.1-0.4l1.2-3.6c3-0.2,4.7-0.3,5.2-0.2l1.9,6.2
	c-0.2,0.4-0.8,0.5-1.8,0.4l-0.4,0.4c2.1,0.1,4.2,0.1,6.5,0l0.1-0.4c-0.9-0.1-1.7-0.1-2.2-0.3l-4.3-13.5c0.1-0.7,0.8-1,2.2-0.8
	l0.2-0.4h-7.7l0.1,0.4c1.4-0.2,2.1-0.1,2.2,0.5l-4.3,11c-0.3,0.4-1,0.7-2,0.8l0.1,0.3H216.1z M188.8,108.1l-0.2-0.4
	c-1.4,0-2.2-0.3-2.5-0.8l2.5-10.9l7.8,13.5c0.3,0.3,0.6,0.3,0.9,0l6.2-14c0.2-0.2,0.4-0.1,0.5,0.4l1.5,11.3c-0.2,0.3-1,0.5-2.3,0.5
	v0.3h6.8l-0.1-0.4c-1,0.1-1.6-0.1-1.9-0.5l-1.7-12.1c0-0.4,0.9-0.6,2.7-0.5l0.4-0.4h-9.7l0.4,0.4c1.5-0.1,2.4,0,2.7,0.4l-5.5,11.8
	l-6.3-11.5c-0.1-0.5,0.6-0.7,2-0.7l0.2-0.4H185l0.4,0.4c1.6-0.1,2.4,0.2,2.5,0.7l-2.6,11.3c-0.2,0.7-0.9,1-2,1l-0.4,0.4H188.8z
	 M169.3,97.9c0.1-1.7-0.3-2.6-1.3-2.6l-5.1,0.1l0.1,5.7c0.3,0.4,0.9,0.5,1.9,0.3l0.3-1.4l0.4,0.2c-0.1,0.8-0.2,2.1-0.3,3.7l-0.4-0.4
	l-0.1-1.1c-0.2-0.2-0.9-0.2-1.9,0.2l-0.2,4c0,0.6,0.6,0.8,1.7,0.7l0.4,0.7h-6.1l0.1-0.4c1,0,1.5-0.3,1.6-0.8l0.1-10.6
	c-0.1-0.8-0.9-1.1-2.2-1.1l-0.3-0.4l10-0.1c0.9-0.1,1.4-0.8,1.3-2.1l0.4-0.3c-0.2,2.1-0.2,4.1,0,6.1L169.3,97.9z M154.2,97.8
	c1.3,2.2,1.3,4.5-0.1,7c-1.4,2.5-4.1,3.3-8.1,2.5c-4-0.9-5.9-3-5.8-6.4c0.1-3.4,2-5.5,5.8-6.2C150.2,94.5,152.9,95.6,154.2,97.8z
	 M140,97.5c-1.6,1.8-2,4.1-1.1,6.6c0.9,2.6,3.3,3.9,7.1,4.1c3.9,0.1,6.7-0.5,8.4-2c1.7-1.5,2.8-3.2,3.3-5.1c0.4-2-0.4-3.7-2.4-5.2
	s-5.1-2.1-9.2-1.6C143.6,94.5,141.6,95.6,140,97.5z M116.4,95c1.2-0.1,1.9,0.2,2.1,0.8v10.8c-0.4,0.6-1.3,1-2.7,1.1l-0.2,0.4h8.8
	c0.4,0.3,0.5,1.1,0.4,2.6l0.5,0.4c-0.1-2.9,0.2-5.8,0.9-8.8h-0.6c-0.1,3-0.9,4.7-2.4,5.2c-1.2,0.2-1.9,0-2.2-0.7V95.7
	c0.1-0.5,0.8-0.7,2.3-0.7l0.1-0.5c-2.5,0.2-4.9,0.2-7.3-0.1L116.4,95z M111.7,97.8c1.3,2.2,1.3,4.5-0.1,7s-4.1,3.3-8.1,2.5
	c-4-0.9-5.9-3-5.8-6.4c0.1-3.4,2-5.5,5.8-6.2C107.7,94.5,110.4,95.6,111.7,97.8z M97.5,97.5c-1.6,1.8-2,4.1-1.1,6.6
	c0.9,2.6,3.3,3.9,7.1,4.1c3.9,0.1,6.7-0.5,8.4-2c1.7-1.5,2.8-3.2,3.3-5.1c0.4-2-0.4-3.7-2.4-5.2c-2-1.5-5.1-2.1-9.2-1.6
	C101.1,94.5,99.1,95.6,97.5,97.5z M91.1,97.8c1.3,2.2,1.3,4.5-0.1,7c-1.4,2.5-4.1,3.3-8.1,2.5c-4-0.9-5.9-3-5.8-6.4
	c0.1-3.4,2-5.5,5.8-6.2C87,94.5,89.7,95.6,91.1,97.8z M76.8,97.5c-1.6,1.8-2,4.1-1.1,6.6c0.9,2.6,3.3,3.9,7.1,4.1
	c3.9,0.1,6.7-0.5,8.4-2c1.7-1.5,2.8-3.2,3.3-5.1c0.4-2-0.4-3.7-2.4-5.2c-2-1.5-5.1-2.1-9.2-1.6C80.5,94.5,78.4,95.6,76.8,97.5z
	 M58.1,95.1c0.9,0.1,1.5,0.4,1.8,1l0.1,11c-0.2,0.4-0.9,0.6-1.9,0.6l0.1,0.3l6,0.1v-0.4c-1.2-0.1-1.8-0.4-1.9-1l-0.1-5.7l7.9-0.2
	l0.5,0.3l0.2,6.2c-0.2,0.4-1.2,0.6-2.8,0.6l-0.1,0.4l8.1-0.1l-0.2-0.4c-1.4,0-2.2-0.2-2.6-0.5l-0.4-14.4c-0.1-0.5,0.7-0.7,2.4-0.7
	v-0.4h-8.3l0.3,0.4c2.1-0.1,3.2,0.1,3.2,0.6l0.3,7.1l-8.5-0.1v-3.9c-0.1-0.6,0.6-0.9,2.1-0.9l0.1-0.5h-6.6L58.1,95.1z M55.7,100.1
	l-0.6-0.6c-0.1-2.1-0.3-3.2-0.8-3.3c-1.9-1-3.7-0.7-5.4,0.8c-1.7,1.6-2,4-0.8,7.3c1.2,3.3,3.9,4.1,8.1,2.3c0.5-0.2,0.5,0,0.2,0.5
	c-5,2.1-8.4,1.7-10.3-1.2c-1.9-2.9-2-5.6-0.1-8c1.8-2.4,4.7-3.2,8.7-2.5l0.4-1.3l0.5-0.1C55.2,95.2,55.3,97.2,55.7,100.1z
	 M41.5,91.9L41.2,92c-0.2,1.8-0.8,2.4-1.7,1.8c-3.4-0.1-5.3,1-5.7,3.3c-0.4,2.3,0.6,3.7,2.9,4.1s3.6,1.4,3.8,3
	c0.2,1.6-0.4,2.7-1.7,3.3c-1.4,0.6-2.6,0.4-3.6-0.4c-1.1-0.8-1.7-2.4-1.8-4.5l-0.4-0.3c0.3,2.6,0.3,5.2,0.1,7.7l0.4-0.4
	c0-1.7,0.2-2.6,0.6-2.6c0.8,1.2,2.5,1.6,4.9,1.3c2.4-0.3,3.6-1.8,3.7-4.4c0-2.6-1.3-4.2-4.1-4.7c-2.7-0.5-3.8-1.5-3.1-3.1
	c0.6-1.6,2.2-2.1,4.5-1.4c0.7,0.1,1.1,1.4,1.2,3.9l0.4,0.3C41,96.6,41.1,94.2,41.5,91.9z"/> -->
<path class="st0" d="M247.7,39.5v35.3c0,1.3-0.2,2.2-0.5,2.5c-0.4,0.6-1.7,1.3-3.9,2.2c0.7,0,1.9,0,3.4-0.1c1.5-0.1,2.7-0.1,3.4-0.1
	c1.2,0,2.9,0,5.3,0.1c2.4,0.1,4.1,0.1,5.3,0.1c-2.4-0.6-3.7-2.2-3.9-4.8c-0.7-10.8-0.9-20.9-0.6-30.3c2.6-3.5,4.1-5.3,4.4-5.3
	c2.3-0.7,3.9-0.2,4.7,1.5c0.7,15.1,1,29.6,1.1,43.5c-0.2,1.4-1.2,2.9-3,4.6v0.5l11.4-6.7c0.8-0.2,1.2-0.8,1.2-1.6
	c0-27,0-40.6-0.1-40.6l-7.1-10.2c-0.2-0.2-0.5-0.4-0.9-0.4c-0.7,0-2.7,1.3-6.2,4c-2.4,2.5-4.4,4.7-6,6.6V29
	c-5.4,4.3-10.2,7.9-14.4,10.8L247.7,39.5z"/>
<path class="st0" d="M226.7,16.3c-0.1,1.2-0.2,2.5-0.4,3.8c1.2,3.7,2.9,6.7,4.8,8.8c3.2-0.3,6-1.6,8.5-3.9c0-7.4-0.5-11.1-1.4-11.1
	c-0.3,0-0.9,0.1-1.6,0.2c-0.7,0.2-1.3,0.2-1.6,0.2c-1.5,0-2.8-0.4-3.9-1.1C228.8,13.5,227.3,14.5,226.7,16.3"/>
<path class="st0" d="M226.6,77.8c0.9-5.8,1.4-13,1.4-21.6c0-6.5-0.3-13.7-0.9-21.6h11.2c0.3,6.2,0.4,13.5,0.1,22.1
	c-0.2,8.4-0.7,15-1.4,19.9c-0.4,3,0.7,5.2,3.2,6.6h-17.2C225,82.1,226.2,80.3,226.6,77.8"/>
<path class="st0" d="M205.1,44.2l1.5-14.2c0.3-0.6,0.7-0.9,1-0.9c0.2,0,0.5,0.4,1.1,1.1l6.3,14.3C213,44.1,209.7,44,205.1,44.2
	 M209.8,47.4c4.1,0,7.8,1,11.1,2.9l3.1-6.5l-3.5-11.9l-10.1-6.6c-0.7-0.4-1.5-0.5-2.5-0.1L194,36.1c-1.2,6.4-1.7,12.5-1.7,18.3
	c0,4.1,0.3,7.7,1,10.8l12.6,10.9l6.3-0.1l7.6-10.8l-5.5-7c-0.3,3.9-0.5,6-0.6,6.3c-0.6,3.2-1.7,5.9-3.4,8.1
	c-2.2-1.2-3.6-2.4-4.2-3.9l-0.9-20.4C205.8,47.8,207.3,47.4,209.8,47.4"/>
<path class="st0" d="M191.6,22.5h-6.5l0.2-15.8c-7.1,9.8-14.3,16.7-21.4,20.6h10.4l-0.6,52.6c0.2,2.1,2.4,3.9,6.3,5.3l10.2,3.7
	c-4-3.4-6-5.8-6-7.3c0-0.3,0.1-0.7,0.2-1l1.1-52.8h7L191.6,22.5z"/>
<path class="st0" d="M168.4,70.9l0.7-0.1c0.4-0.3,0.6-0.8,0.6-1.4c0-1.5-2.2-4.6-6.5-9.2c-6.1-6.6-10.5-11.6-13.1-14.9
	c-0.3-0.4-0.5-0.9-0.5-1.5c0-1,0.5-2,1.4-3.1c0.9-1.1,1.8-1.6,2.7-1.6c1.1,0,2.3,0.4,3.5,1.3c1.3,0.9,2.1,1.8,2.3,2.8
	c-0.1,0.5,0,1.3,0.2,2.5c0.2,1.2,0.3,1.9,0.3,2.4c0,1.1-0.4,1.9-1.2,2.6v0.5l8.9-2c1.2-0.7,1.9-1.6,1.9-2.6c0-0.9-0.5-2.6-1.6-5
	l-8.3-10.3c-0.1-0.2-0.2-0.3-0.5-0.3c-1.6,0-5.1,2-10.2,6c-4.6,3.6-7.2,5.6-7.9,6.1l-1.1,1.2c-0.3,0.2-0.5,0.5-0.5,0.9
	c0,0.7,3.2,4.7,9.6,12.2c6.4,7.4,9.6,11.7,9.6,12.8c0,0.5-0.2,0.9-0.5,1.1l0.5-0.1c-1.6,2-2.3,3.4-2.3,4.3c-0.9,0.2-2.3-0.4-4.3-1.9
	c-2-1.5-3.1-2.8-3.3-3.8c0.1-0.4,0-1.2-0.2-2.3c-0.2-1.1-0.3-1.8-0.3-2.2c0-1,0.3-1.8,1-2.5l-5.5,1.2l-2.5,1.5
	c-1.2,0.7-1.9,1.6-1.9,2.6c0,0.9,0.5,2.6,1.6,5l8.3,10.2c0.1,0.2,0.2,0.2,0.5,0.2c1.7,0,5.1-2,10.3-6c4.6-3.6,7.3-5.6,8-6.1V70.9z"
	/>
<path class="st0" d="M121.9,22.6v41.5c0,1.3-0.2,2.2-0.5,2.5c-0.4,0.6-1.7,1.3-3.9,2.2h3.4h3.4h5.3h5.3c-2.4-0.6-3.7-2.2-3.9-4.8
	c-0.7-12-1-24.2-0.6-36.5c0.7-1,1.4-1.5,1.9-1.6c0.6-0.2,1.4,0.9,2.5,3.2c0.8,1.8,1.4,3.4,1.7,4.6c-0.2,1.4-1.2,2.9-3,4.6v0.5
	l11.4-6.7c0.8-0.2,1.2-0.8,1.2-1.6c0-0.7-0.3-1.5-1-2.2L139.4,18c-0.2-0.2-0.5-0.4-0.9-0.4c-1.3,0-4.1,1.9-8.5,5.6V12.1
	c-5.4,4.3-10.2,7.9-14.4,10.8L121.9,22.6z"/>
<path class="st0" d="M93.8,27.7v41.5c0,1.3-0.2,2.2-0.5,2.5c-0.4,0.6-1.7,1.3-3.9,2.2h3.4h3.4h5.3h5.3c-2.4-0.6-3.7-2.2-3.9-4.8
	c-0.7-12-1-24.2-0.6-36.5c0.7-1,1.4-1.5,1.9-1.6c0.6-0.2,1.4,0.9,2.5,3.2c0.8,1.8,1.4,3.4,1.7,4.6c-0.2,1.4-1.2,2.9-3,4.6v0.5
	l11.4-6.7c0.8-0.2,1.2-0.8,1.2-1.6c0-0.7-0.3-1.5-1-2.2l-5.8-10.2c-0.2-0.2-0.5-0.4-0.9-0.4c-1.3,0-4.1,1.9-8.5,5.6V17.1
	c-5.4,4.3-10.2,7.9-14.4,10.8L93.8,27.7z"/>
<path class="st0" d="M65.2,40.7c0.2-0.1-1.5-1.6-5.1-4.6c-2-1.7-3.4-2.5-4.2-2.5c-0.4,0-0.6,0.3-0.6,0.9c0,24.9,0.1,37.5,0.2,37.7
	l7.1,10.2c0.2,0.2,0.5,0.4,0.9,0.4c0.7,0,2.7-1.3,6.2-4c2.4-2.5,4.4-4.7,6-6.6v11.2c6.4-0.5,11.2-0.8,14.4-0.9
	c-4.4-1.6-6.6-4.3-6.6-8.2c0-0.5,0-1,0.1-1.5V37.5c0-1.5,0.4-2.5,1.2-3.1c0.3-0.2,1.4-0.8,3.4-1.6h-3.4h-3.4h-5.3h-5.3
	c2.4,0.6,3.7,2.2,3.9,4.8c0.7,10.8,0.9,20.9,0.6,30.3c-2.7,3.5-4.1,5.3-4.3,5.3c-2.3,0.7-3.9,0.2-4.7-1.5
	C65.5,57.6,65.2,47.3,65.2,40.7"/>
<path class="st0" d="M27.7,47.8l-0.4-23.6l22.6-0.5c2.4-0.1,4.8,0.6,7.1,2.1c2.4,1.5,4.2,3.3,5.4,5.3l-4.6-19.8
	c-10.4,1.2-20.8,1.9-30.9,1.9c-4,0-10.2-0.4-18.8-1.2l0.2,1.2H8.3l5.2,37.5l-6.2-2.7L12,78.9l-4.5-3l8.9,51.3l2.7-29.8l4,6.2
	l-0.7-32.4l0.5,1l4.7,7.2v-22h14.4c3.6,0,6,2.3,7.5,6.8L49.9,42c-1.4,3.5-3.4,5.4-5.8,5.8H27.7z"/>
</svg>
