<?xml version="1.0" encoding="UTF-8" standalone="no"?>
<!DOCTYPE svg PUBLIC "-//W3C//DTD SVG 1.1//EN" "http://www.w3.org/Graphics/SVG/1.1/DTD/svg11.dtd">
<svg width="100%" height="100%" viewBox="0 0 594 176" version="1.1"
    xmlns="http://www.w3.org/2000/svg"
    xmlns:xlink="http://www.w3.org/1999/xlink" xml:space="preserve"
    xmlns:serif="http://www.serif.com/">
    <g id="Title">
        <path d="M10.114,49.928l-0.008,-0.007c-6.047,-5.87 -9.305,-11.722 -9.233,-18.828c0.066,-6.477 1.233,-10.282 5.082,-15.847c5.197,-7.515 10.726,-13.772 26.812,-13.494c8.228,0.142 16.451,2.68 29.214,7.66c14.612,5.701 20.282,6.691 26.603,6.996c5.11,0.246 9.995,-1.154 13.584,-2.6c6.328,-2.551 10.784,-5.127 14.658,-9.256l3.495,-3.725l5.236,3.111l5.236,3.11c0,0 -4.255,6.499 -6.347,8.952c-4.577,5.366 -10.83,10.775 -17.916,13.64c-5.846,2.364 -13.21,3.862 -21.042,2.953c0,0 0.349,17.942 0.4,17.942c0.05,0 0.179,4.923 0.286,10.939c0.108,6.016 -0.089,11.614 -0.089,11.614c0,0 4.798,-0.102 8.01,-0.53c3.213,-0.429 7.85,-0.936 10.306,-1.127c2.456,-0.191 15.405,-1.327 15.405,-1.327c0,0 -2.591,9.486 -7.715,15.953c-0.916,1.156 -2.955,1.214 -8.343,0.48c-9.191,-1.251 -17.565,0.389 -17.565,0.389c0,0 -0.189,9.002 -0.065,24.901c0.093,12.032 -1.365,21.11 -2.879,26.736c-2.051,7.62 -5.68,14.735 -8.227,18.535c-2.415,3.602 -5.605,6.938 -9.283,9.907c-4.999,4.036 -12.835,8.346 -12.835,8.346c-4.054,-2.007 -7.991,-4.542 -11.476,-9.115c0,0 9.236,-7.119 12.286,-13.96c2.978,-6.677 3.983,-11.678 4.584,-19.442c0.224,-2.889 0.444,-15.819 0.538,-25.527c0.119,-12.4 -0.116,-19.031 -0.116,-19.031c0,0 -2.072,-0.162 -5.372,0.153c-6.363,0.606 -30.492,0.933 -30.81,0.418c-0.314,-0.507 -1.479,-13.008 -1.479,-13.008l14.276,-0.384c7.852,-0.212 22.966,-1.649 22.966,-1.649c0,0 -0.459,-14.621 -0.364,-29.969c0.05,-8.186 -0.052,-17.262 -0.052,-17.262c0,0 -10.264,-4.986 -10.975,-5.346c-2.393,-1.212 -8.861,-3.695 -10.539,-4.031c-4.432,-0.889 -13.474,-1.341 -14.309,4.218c0.335,-0.017 0.674,-0.026 1.014,-0.026c9.915,0 17.965,7.554 17.965,16.859c0,9.305 -8.05,16.86 -17.965,16.86c-2.631,0 -5.13,-0.532 -7.383,-1.487c-1.609,-0.502 -3.283,-1.518 -5.355,-3.489c-0.072,-0.068 -0.143,-0.136 -0.214,-0.205Z"/>
        <g>
            <path d="M184.538,99.169l-22.324,0l0,-8.421l-10.575,8.714c-1.762,0.523 -3.753,0.784 -5.972,0.784c-5.027,0 -9.008,-1.355 -11.946,-4.064c-2.937,-2.709 -4.406,-6.38 -4.406,-11.015l0,-21.051l-8.714,-4.993l0,-5.484l19.191,-8.518l6.168,0l0,32.703c0,3.133 0.457,5.32 1.371,6.56c0.914,1.24 2.546,1.86 4.896,1.86c3.394,0 6.723,-1.109 9.987,-3.329l0,-18.799l-8.714,-4.993l0,-5.484l19.19,-8.518l6.169,0l0,44.746l8.812,2.937l-3.133,6.365Z" style="fill-rule:nonzero;"/>
            <path d="M225.857,59.318c-2.35,0 -4.7,1.045 -7.05,3.134l0,26.436l14.883,3.916l-3.133,6.365l-37.109,0l0,-5.483l8.714,-7.344l0,-22.226l-8.714,-5.483l0,-5.483l20.366,-8.616l3.72,10.868l8.91,-9.204c1.371,-0.522 2.97,-0.783 4.798,-0.783c3.394,0 6.315,0.783 8.763,2.35c2.448,1.566 4.161,3.72 5.14,6.462l-9.399,11.749l-6.169,0c-0.065,-2.349 -0.391,-4.03 -0.979,-5.042c-0.587,-1.012 -1.501,-1.518 -2.741,-1.518l0,-0.098Z" style="fill-rule:nonzero;"/>
            <path d="M281.569,59.318c-2.35,0 -4.7,1.045 -7.05,3.134l0,26.436l14.883,3.916l-3.133,6.365l-37.109,0l0,-5.483l8.714,-7.344l0,-22.226l-8.714,-5.483l0,-5.483l20.366,-8.616l3.72,10.868l8.91,-9.204c1.371,-0.522 2.97,-0.783 4.798,-0.783c3.394,0 6.315,0.783 8.763,2.35c2.448,1.566 4.161,3.72 5.141,6.462l-9.4,11.749l-6.169,0c-0.065,-2.349 -0.391,-4.03 -0.979,-5.042c-0.587,-1.012 -1.501,-1.518 -2.741,-1.518l0,-0.098Z" style="fill-rule:nonzero;"/>
            <path d="M333.266,86.734c0,-1.24 -0.848,-2.497 -2.545,-3.77c-1.697,-1.273 -4.308,-2.888 -7.833,-4.846c-3.46,-1.959 -6.234,-3.64 -8.323,-5.043c-2.089,-1.403 -3.9,-3.003 -5.434,-4.798c-1.534,-1.795 -2.301,-3.737 -2.301,-5.825c0,-2.35 1.126,-4.863 3.378,-7.54c2.252,-2.676 5.01,-4.928 8.274,-6.756c3.263,-1.827 6.266,-2.741 9.008,-2.741c3.329,0 7.229,0.375 11.7,1.126c4.471,0.75 7.719,1.583 9.742,2.497l0,16.351l-6.168,0c-1.762,-3.264 -3.868,-5.81 -6.315,-7.637c-2.448,-1.828 -4.978,-2.742 -7.589,-2.742c-1.305,0 -2.349,0.376 -3.133,1.126c-0.783,0.751 -1.175,1.648 -1.175,2.693c0,1.371 0.865,2.709 2.595,4.014c1.73,1.306 4.488,3.035 8.274,5.19c5.026,2.741 8.893,5.222 11.602,7.441c2.709,2.219 4.063,4.765 4.063,7.637c0,2.415 -1.158,4.945 -3.475,7.588c-2.318,2.644 -5.157,4.88 -8.519,6.707c-3.361,1.828 -6.446,2.742 -9.252,2.742c-3.591,0 -7.85,-0.376 -12.778,-1.126c-4.928,-0.751 -8.437,-1.583 -10.526,-2.497l0,-16.939l6.169,0c1.958,3.46 4.373,6.152 7.245,8.078c2.872,1.926 5.712,2.888 8.519,2.888c1.436,0 2.594,-0.375 3.476,-1.126c0.881,-0.75 1.321,-1.648 1.321,-2.692Z" style="fill-rule:nonzero;"/>
            <path d="M392.601,99.364c-2.219,0.523 -4.863,0.784 -7.931,0.784c-6.266,0 -10.852,-1.42 -13.756,-4.259c-2.905,-2.84 -4.357,-7.23 -4.357,-13.17l0,-26.925l-10.575,0l0,-5.19l21.051,-22.911l6.169,0l0,21.638l17.624,0l0,6.463l-17.624,0l0,26.24c0,4.504 2.545,6.756 7.637,6.756c1.305,0 2.595,-0.212 3.867,-0.636c1.273,-0.425 2.889,-1.159 4.847,-2.204l2.937,5.581l-9.889,7.833Z" style="fill-rule:nonzero;"/>
            <path d="M439.599,45.415c6.854,0 12.158,2.611 15.911,7.833c3.753,5.222 5.565,12.467 5.434,21.736l-35.248,0c0.652,3.982 2.056,7.164 4.21,9.547c2.154,2.382 4.961,3.574 8.42,3.574c4.57,0 11.13,-2.285 19.681,-6.854l2.937,5.581l-14.883,11.847c-3.851,0.979 -8.322,1.469 -13.414,1.469c-4.765,0 -9.057,-1.126 -12.875,-3.378c-3.819,-2.252 -6.789,-5.336 -8.91,-9.253c-2.122,-3.916 -3.182,-8.257 -3.182,-13.022c0,-5.157 1.664,-9.971 4.993,-14.442c3.329,-4.472 7.491,-8.029 12.484,-10.673c4.994,-2.643 9.808,-3.965 14.442,-3.965Zm-5.385,11.358c-2.872,0 -5.026,0.962 -6.462,2.888c-1.436,1.926 -2.22,4.879 -2.35,8.861l18.701,0c-0.522,-4.047 -1.485,-7.017 -2.888,-8.91c-1.404,-1.893 -3.77,-2.839 -7.099,-2.839l0.098,0Z" style="fill-rule:nonzero;"/>
            <path d="M501.284,99.169l-30.94,0l0,-5.483l8.714,-7.344l0,-22.715l-8.714,-5.777l0,-5.483l19.19,-7.833l6.169,0l0,45.333l8.812,2.937l-3.231,6.365Zm-14.002,-84.107c2.807,0 5.108,0.898 6.903,2.693c1.795,1.795 2.693,4.03 2.693,6.707c0,1.893 -0.653,3.655 -1.958,5.287c-1.306,1.632 -2.938,2.937 -4.896,3.916c-1.958,0.979 -3.851,1.469 -5.679,1.469c-2.742,0 -5.01,-0.897 -6.805,-2.693c-1.795,-1.795 -2.692,-4.03 -2.692,-6.707c0,-1.892 0.652,-3.655 1.958,-5.287c1.305,-1.632 2.921,-2.937 4.846,-3.916c1.926,-0.979 3.803,-1.469 5.63,-1.469Z" style="fill-rule:nonzero;"/>
            <path d="M574.522,99.169l-22.226,0l0,-31.332c0,-3.068 -0.473,-5.239 -1.42,-6.511c-0.946,-1.273 -2.594,-1.91 -4.944,-1.91c-3.46,0 -6.887,1.11 -10.281,3.329l0,27.122l8.812,2.937l-3.231,6.365l-30.94,0l0,-5.483l8.714,-7.344l0,-22.226l-8.714,-5.483l0,-5.483l20.366,-8.616l3.818,11.357l12.141,-9.693c1.763,-0.522 3.753,-0.783 5.973,-0.783c4.961,0 8.926,1.354 11.896,4.063c2.97,2.709 4.455,6.381 4.455,11.015l0,29.374l8.812,2.937l-3.231,6.365Z" style="fill-rule:nonzero;"/>
        </g>
        <path d="M586.86,106.303c-71.985,-0.198 -487.761,0 -487.761,0c-0.919,1.871 -2.038,3.49 -3.493,4.691c-0.944,0.78 -0.253,1.563 0.917,1.267c10.71,-2.709 335.625,-0.354 482.376,-0.156c3.024,2.064 8.686,1.608 11.2,0.794c3.625,-1.175 5.928,-6.571 -3.239,-6.596Z"/>
    </g>
</svg>